# Blender v2.79 (sub 0) OBJ File: 'Cottage1.blend'
# www.blender.org
mtllib Door.mtl
o Circle.000_Circle.001
v -0.016855 1.540093 2.498535
v 0.021392 -1.759938 2.167915
v -0.051491 1.574606 2.261684
v 0.054773 1.520908 2.405822
v 0.030616 1.555354 2.225437
v -0.016350 -1.753761 2.479188
v 0.032764 -1.730869 2.299191
v -0.014309 -0.185599 2.186487
v 0.031734 -0.375312 2.439320
v -0.037129 -0.565721 2.432507
v -0.025719 0.570645 2.222650
v 0.025808 -0.938500 2.301526
v 0.021470 -0.387307 2.236693
v -0.051311 -0.267144 2.242092
v 0.053727 -0.878411 2.392436
v -0.053428 -1.712901 2.225708
v 0.041797 0.218848 2.258433
v -0.001497 0.135923 2.489913
v -0.057896 0.433270 2.444541
v 0.035423 0.932781 2.397546
v -0.023516 1.466904 2.196538
v 0.027950 1.485580 2.192853
v 0.009747 1.528375 1.920197
v -0.029135 -1.769248 1.634487
v -0.054775 0.687977 2.007680
v 0.042251 -1.714080 2.051221
v 0.019912 -1.696208 2.135558
v -0.054205 -1.734253 2.114469
v -0.055174 1.517060 2.062927
v 0.004402 1.575668 1.895140
v 0.043321 1.524073 1.849937
v 0.062499 1.543518 2.039048
v 0.043323 -0.837381 2.101922
v 0.046020 1.564369 1.684702
v -0.060907 1.511483 1.828843
v -0.035826 1.545997 1.647484
v 0.053968 -1.765790 1.859305
v -0.034647 -1.740300 1.744985
v 0.010387 -0.217338 1.610096
v 0.033527 -0.627082 1.857633
v -0.033021 -0.785895 1.884031
v 0.058097 0.119113 2.126992
v -0.040853 0.942060 1.819722
v 0.021557 0.561498 1.648768
v -0.024422 -1.763112 1.961387
v -0.030825 -0.955922 1.721954
v -0.027929 -0.408923 1.660016
v 0.046943 -0.280142 1.667545
v -0.053419 -0.551792 1.846293
v 0.049067 -1.724789 1.684981
v -0.047160 0.216200 1.677765
v -0.004274 0.124151 1.911372
v 0.051475 0.408680 1.866546
v 0.020430 1.458838 1.619246
v 0.020763 -0.839229 1.856664
v 0.022521 0.607967 1.904236
v 0.014604 -1.753477 1.936041
v -0.023846 -1.232649 2.197842
v -0.022544 1.562745 2.194579
v 0.018399 0.182798 2.181194
v -0.024464 0.781387 2.163133
v -0.033147 -1.691870 1.615034
v 0.011040 -1.735453 1.340761
v -0.027179 1.562975 1.045346
v 0.048262 -0.887696 1.432824
v -0.047810 1.507810 1.473142
v -0.026359 1.490657 1.556364
v 0.048532 1.529764 1.535241
v 0.050168 -1.723058 1.483387
v -0.008441 -1.780985 1.316045
v -0.047766 -1.727858 1.272369
v -0.066386 -1.750303 1.462073
v -0.048212 0.628817 1.524301
v 0.045603 -1.771382 1.107078
v -0.060843 -1.718333 1.255284
v -0.034913 -1.752377 1.068513
v 0.011216 1.556387 1.353668
v -0.037543 1.537364 1.181601
v 0.008713 -0.009638 1.031209
v -0.035776 0.177302 1.282381
v 0.033109 0.383443 1.275113
v 0.027710 0.573990 1.303976
v -0.063425 -0.332732 1.547061
v 0.021157 -0.762842 1.068139
v -0.029216 0.744143 1.142816
v -0.026438 0.181929 1.082660
v 0.046665 0.077006 1.082764
v -0.058494 0.664041 1.233848
v 0.049556 1.516108 1.110214
v -0.045643 -0.407279 1.102549
v -0.004399 -0.330438 1.332811
v 0.052073 -0.628593 1.286836
v -0.040404 -1.159543 1.239964
v 0.018931 -1.663133 1.039367
v -0.024557 0.633359 1.277500
v -0.027888 -0.802423 1.323591
v -0.018432 1.548635 1.361946
v 0.018528 1.043900 1.620238
v 0.017364 -1.772475 1.617326
v -0.022692 -0.368606 1.598396
v 0.019777 -0.985523 1.584029
v 0.027781 1.486300 1.036490
v -0.015883 1.539744 0.762731
v 0.023003 -1.758947 0.473577
v -0.053898 0.671330 0.851002
v 0.032730 -1.687832 1.027426
v -0.060282 -1.734643 1.002684
v -0.055880 1.517816 0.904836
v 0.004163 1.575076 0.739355
v 0.043258 1.524973 0.693404
v 0.061670 1.543636 0.883146
v 0.026274 -1.146781 1.031132
v 0.056391 1.521476 0.676775
v 0.003289 1.560923 0.510769
v -0.016510 -1.753418 0.778888
v 0.032594 -1.732767 0.593702
v -0.013447 -0.188743 0.451768
v 0.029872 -0.375949 0.702569
v -0.037384 -0.580719 0.700886
v -0.034039 -0.787558 0.732840
v 0.059434 0.139571 0.971276
v -0.041316 -0.856318 1.043793
v -0.026698 0.564044 0.489821
v 0.023527 -0.941901 0.565515
v 0.021647 -0.370976 0.501737
v -0.050999 -0.276479 0.505369
v 0.052377 -0.887248 0.659374
v -0.054702 -1.712901 0.532205
v 0.043058 0.230449 0.522928
v -0.000638 0.135431 0.755977
v -0.058003 0.427665 0.713140
v 0.035181 0.952320 0.660298
v 0.014964 1.536776 0.460367
v -0.040037 1.469025 0.486403
v 0.019940 -0.839769 0.699578
v 0.023329 0.589531 0.747509
v 0.050577 -1.779170 0.811080
v -0.029276 -1.744118 0.786093
v 0.045775 -0.991185 0.922541
v -0.022497 1.566447 1.039523
v 0.018055 0.182281 1.024535
v -0.023904 0.792984 1.006718
v 0.028867 1.484904 0.448633
v -0.016855 1.540093 0.174528
v 0.021392 -1.759937 -0.156092
v -0.058136 1.516132 0.308756
v 0.041659 -1.718829 0.302984
v 0.020110 -1.698278 0.391080
v -0.053976 -1.734888 0.365054
v 0.002542 1.573266 0.150229
v 0.043779 1.521341 0.104021
v 0.061334 1.544626 0.297187
v 0.043254 -0.838607 0.356903
v -0.051491 1.574606 -0.062324
v 0.054773 1.520908 0.081814
v 0.030616 1.555354 -0.098571
v -0.016350 -1.753761 0.155180
v 0.032763 -1.730869 -0.024817
v -0.014309 -0.185599 -0.137521
v 0.031734 -0.375312 0.115312
v -0.037129 -0.565721 0.108500
v 0.059389 0.126988 0.380577
v -0.058293 -0.592466 0.222603
v -0.025720 0.570645 -0.101358
v 0.025808 -0.938500 -0.022481
v 0.021470 -0.387307 -0.087314
v -0.051312 -0.267144 -0.081916
v 0.053727 -0.878411 0.068428
v -0.053428 -1.712901 -0.098299
v 0.041797 0.218848 -0.065575
v -0.001497 0.135923 0.165906
v -0.057896 0.433270 0.120534
v 0.035422 0.932782 0.073538
v -0.023516 1.466904 -0.127469
v 0.009534 -0.757855 0.113414
v 0.023723 0.573364 0.157660
v 0.040976 -1.770078 0.208625
v -0.026250 -1.745053 0.179034
v -0.024282 -1.234519 0.451768
v -0.022762 1.567240 0.448815
v 0.018673 0.183045 0.434844
v -0.024125 0.785318 0.417780
v -0.111996 -1.550456 -0.058356
v -0.005755 -1.413325 0.564341
v -0.130362 -1.445569 2.439649
v -0.101673 -1.508025 2.425697
v -0.006486 -1.492408 2.455399
v -0.005243 -1.454238 -0.082933
v -0.081754 -1.329982 -0.128689
v -0.131737 -1.296507 -0.088408
v -0.156366 -1.436554 -0.103589
v -0.131738 -1.483116 1.755203
v -0.033693 -1.321755 1.715007
v -0.150712 -1.501682 1.008458
v -0.102766 -1.301488 1.756645
v -0.105023 -1.336718 0.626805
v -0.094856 -1.360272 2.470407
v -0.045476 -1.554150 2.063792
v -0.047148 -1.551734 -0.118599
v -0.099730 -1.541822 0.958739
v -0.044682 -1.528446 0.491414
v -0.053229 1.172178 2.431364
v -0.164965 1.275765 2.455743
v -0.036801 1.280040 -0.069822
v -0.064475 1.214800 -0.053778
v -0.159622 1.234073 -0.082359
v -0.087038 1.393163 2.500348
v -0.034079 1.427383 2.459810
v -0.011533 1.284332 2.477989
v -0.034752 1.240110 0.617376
v -0.014031 1.222577 1.371225
v -0.165165 1.339566 0.809540
v -0.078058 1.420427 0.680420
v -0.059835 1.387660 1.719715
v -0.037678 1.349918 -0.109833
v -0.124014 1.371832 -0.090296
v -0.121487 1.169856 0.308283
v -0.119534 1.172043 2.495644
v -0.066321 1.182390 1.414989
v -0.121285 1.195027 1.885189
v -0.070126 1.213831 2.426967
v -0.035163 -1.386725 -0.086906
v -0.005142 1.247813 2.354784
v -0.052888 1.376114 2.267801
v -0.070690 -1.557210 0.127844
v -0.026539 -1.433670 0.014428
v -0.067935 -0.057382 0.999591
v -0.028986 -0.358236 1.041481
v -0.089458 -0.528998 0.896665
v -0.079850 0.552108 1.553983
v -0.034691 -0.754253 0.549783
v -0.036381 -0.238871 0.906260
v -0.101699 -0.161705 0.975062
v -0.008751 -0.762255 0.652951
v -0.105029 -1.381737 -0.014109
v -0.017131 0.253353 1.342819
v -0.056419 0.039994 1.437122
v -0.107998 0.309643 1.612548
v -0.024213 0.779948 1.944118
v -0.042391 1.384773 2.216050
v -0.091843 1.313021 2.186502
v 0.052215 -1.550456 2.163748
v -0.046156 -1.413325 1.539750
v 0.095990 -1.445569 -0.047748
v 0.067127 -1.508025 -0.034161
v -0.027677 -1.492408 -0.065072
v -0.054840 -1.454238 2.186965
v 0.021087 -1.329982 2.233691
v 0.071575 -1.296507 2.194048
v 0.096011 -1.436554 2.209541
v 0.094853 -1.483116 0.350586
v -0.003692 -1.321755 0.389532
v 0.104397 -1.501682 1.097512
v 0.065901 -1.301488 0.348775
v 0.053894 -1.336718 1.478553
v 0.060874 -1.360272 -0.078954
v 0.012493 -1.554150 0.040924
v -0.013388 -1.551734 2.223161
v 0.052792 -1.541822 1.146579
v -0.008152 -1.528446 1.613166
v 0.023229 1.172178 0.037730
v 0.135264 1.275765 0.014774
v -0.024775 1.280040 2.538506
v 0.003099 1.214800 2.522815
v 0.097878 1.234073 2.552604
v 0.057907 1.393163 -0.030819
v 0.004440 1.427383 0.009043
v -0.017875 1.284332 -0.009422
v -0.018148 1.240110 1.851337
v -0.029349 1.222577 1.097285
v 0.114681 1.339566 1.660847
v 0.025951 1.420427 1.788849
v 0.020851 1.387660 0.749406
v -0.024404 1.349918 2.578525
v 0.062172 1.371832 2.560087
v 0.064678 1.169856 2.161508
v 0.090342 1.172043 -0.025702
v 0.023489 1.182390 1.054189
v 0.084385 1.195027 0.584726
v 0.097499 1.213831 0.003741
v 0.030800 -1.386725 2.516968
v 0.031609 1.247813 0.075092
v 0.078253 1.376114 0.162675
v 0.069036 -1.557210 2.302687
v 0.023456 -1.433670 2.415532
v 0.077287 -0.057382 1.430974
v 0.038870 -0.358236 1.388593
v 0.097509 -0.528998 1.534167
v 0.096201 0.552108 0.876779
v 0.038367 -0.754253 1.880324
v 0.044557 -0.238871 1.523897
v 0.110739 -0.161705 1.455931
v 0.013731 -0.762255 1.776834
v 0.101580 -1.381737 2.445065
v 0.030820 0.253353 1.087128
v 0.071296 0.039994 0.993333
v 0.125085 0.309643 0.818576
v 0.045493 0.779948 0.485967
v 0.067103 1.384773 0.214289
v 0.116178 1.313021 0.244464
vt 0.224355 0.617343
vt 0.257851 0.677461
vt 0.282564 0.629508
vt 0.330891 0.621693
vt 0.348739 0.679492
vt 0.369873 0.631089
vt 0.969459 0.743457
vt 0.958082 0.745082
vt 0.969386 0.744905
vt 0.941127 0.740611
vt 0.939943 0.742286
vt 0.950630 0.741413
vt 0.949427 0.743328
vt 0.926466 0.743791
vt 0.951758 0.744025
vt 0.926637 0.745450
vt 0.943287 0.744517
vt 0.926805 0.739234
vt 0.937303 0.739250
vt 0.927108 0.742331
vt 0.969212 0.742069
vt 0.953378 0.741162
vt 0.291577 0.660413
vt 0.224899 0.655181
vt 0.382581 0.666981
vt 0.935564 0.745672
vt 0.951546 0.746017
vt 0.944140 0.746429
vt 0.953762 0.746775
vt 0.969533 0.746420
vt 0.944225 0.739738
vt 0.769126 0.744506
vt 0.758762 0.744314
vt 0.768856 0.746469
vt 0.757229 0.744269
vt 0.768662 0.743834
vt 0.223815 0.617403
vt 0.282564 0.629508
vt 0.257851 0.677460
vt 0.313550 0.650701
vt 0.370218 0.632946
vt 0.348472 0.679518
vt 0.767134 0.651402
vt 0.767031 0.652671
vt 0.751418 0.653567
vt 0.767259 0.646573
vt 0.767260 0.648029
vt 0.751942 0.648973
vt 0.738992 0.648429
vt 0.748329 0.649245
vt 0.737637 0.650104
vt 0.747365 0.651144
vt 0.749575 0.651871
vt 0.724128 0.651617
vt 0.740562 0.741750
vt 0.751866 0.741797
vt 0.752926 0.740866
vt 0.729779 0.743596
vt 0.740476 0.743718
vt 0.730025 0.742001
vt 0.741197 0.745022
vt 0.740880 0.652286
vt 0.724299 0.653277
vt 0.724472 0.647043
vt 0.734965 0.647076
vt 0.724754 0.650165
vt 0.766870 0.649888
vt 0.385062 0.751747
vt 0.366424 0.727813
vt 0.352783 0.779523
vt 0.329010 0.727916
vt 0.251806 0.709960
vt 0.236126 0.725277
vt 0.283642 0.746268
vt 0.260635 0.788337
vt 0.290966 0.774936
vt 0.226219 0.770270
vt 0.291518 0.660538
vt 0.224897 0.655176
vt 0.335873 0.613359
vt 0.382907 0.663457
vt 0.732210 0.653435
vt 0.752299 0.654643
vt 0.741803 0.654256
vt 0.759126 0.740837
vt 0.768641 0.741165
vt 0.759981 0.747742
vt 0.862127 0.750406
vt 0.851700 0.750200
vt 0.861855 0.752375
vt 0.850102 0.750162
vt 0.861660 0.749742
vt 0.224026 0.617379
vt 0.257851 0.677461
vt 0.282564 0.629508
vt 0.330119 0.622985
vt 0.348743 0.679492
vt 0.369806 0.630732
vt 0.572665 0.644334
vt 0.560936 0.645965
vt 0.572595 0.645798
vt 0.544332 0.641492
vt 0.543225 0.643147
vt 0.553938 0.642311
vt 0.552653 0.644209
vt 0.529677 0.644672
vt 0.554868 0.644894
vt 0.833504 0.747664
vt 0.844966 0.747696
vt 0.845671 0.746775
vt 0.822778 0.749501
vt 0.833475 0.749625
vt 0.823035 0.747911
vt 0.834252 0.750908
vt 0.529843 0.646352
vt 0.546509 0.645412
vt 0.530014 0.640105
vt 0.540509 0.640132
vt 0.530304 0.643214
vt 0.572416 0.642950
vt 0.556794 0.642077
vt 0.385062 0.751747
vt 0.366424 0.727813
vt 0.352846 0.779533
vt 0.328846 0.728146
vt 0.251792 0.709955
vt 0.236322 0.725145
vt 0.283642 0.746268
vt 0.260635 0.788337
vt 0.290966 0.774936
vt 0.226221 0.770241
vt 0.291596 0.660372
vt 0.224652 0.654726
vt 0.382569 0.667111
vt 0.538245 0.646542
vt 0.554750 0.646898
vt 0.547346 0.647311
vt 0.557211 0.647668
vt 0.572739 0.647301
vt 0.852125 0.746744
vt 0.861640 0.747073
vt 0.852978 0.753640
vt 0.335625 0.776790
vt 0.368166 0.781973
vt 0.367286 0.728920
vt 0.769127 0.744502
vt 0.758528 0.744346
vt 0.768857 0.746478
vt 0.757021 0.744265
vt 0.768662 0.743834
vt 0.330595 0.622188
vt 0.348760 0.679490
vt 0.369970 0.631611
vt 0.371081 0.746766
vt 0.359841 0.748350
vt 0.371000 0.748138
vt 0.342802 0.743858
vt 0.341706 0.745496
vt 0.352383 0.744685
vt 0.351080 0.746577
vt 0.328188 0.746176
vt 0.353164 0.747248
vt 0.739021 0.741830
vt 0.752109 0.741776
vt 0.752887 0.740866
vt 0.729722 0.743012
vt 0.740476 0.743718
vt 0.741181 0.745028
vt 0.328256 0.748702
vt 0.344817 0.747693
vt 0.328427 0.742473
vt 0.338921 0.742500
vt 0.328801 0.745486
vt 0.370815 0.745319
vt 0.355307 0.744450
vt 0.329804 0.726798
vt 0.251811 0.709961
vt 0.236228 0.725208
vt 0.283642 0.746268
vt 0.260635 0.788337
vt 0.290966 0.774936
vt 0.226203 0.770462
vt 0.292966 0.657463
vt 0.265585 0.662453
vt 0.283688 0.677168
vt 0.224877 0.655140
vt 0.224011 0.617381
vt 0.382745 0.665207
vt 0.336801 0.748912
vt 0.353203 0.749268
vt 0.345759 0.749679
vt 0.355727 0.750042
vt 0.371152 0.749670
vt 0.740526 0.747135
vt 0.736749 0.748473
vt 0.752710 0.748467
vt 0.729843 0.744247
vt 0.759126 0.740837
vt 0.768641 0.741165
vt 0.760113 0.747777
vt 0.969597 0.739072
vt 0.926787 0.746734
vt 0.767209 0.654246
vt 0.735853 0.747746
vt 0.752752 0.748467
vt 0.729843 0.746406
vt 0.756554 0.652278
vt 0.768494 0.749296
vt 0.769007 0.748343
vt 0.741887 0.647564
vt 0.724449 0.654560
vt 0.739517 0.748932
vt 0.768931 0.742091
vt 0.828647 0.753664
vt 0.845481 0.754376
vt 0.822843 0.752304
vt 0.861493 0.755203
vt 0.862006 0.754250
vt 0.572803 0.640004
vt 0.547431 0.640619
vt 0.529993 0.647615
vt 0.832516 0.754839
vt 0.861933 0.747998
vt 0.729813 0.746451
vt 0.768494 0.749296
vt 0.769007 0.748343
vt 0.371215 0.742341
vt 0.345844 0.742988
vt 0.328406 0.749984
vt 0.328067 0.747041
vt 0.736648 0.740964
vt 0.730067 0.740887
vt 0.730035 0.747848
vt 0.768931 0.742091
vt 0.926340 0.741321
vt 0.958876 0.744301
vt 0.724003 0.649147
vt 0.734854 0.740928
vt 0.730066 0.740833
vt 0.730035 0.747848
vt 0.529547 0.642202
vt 0.562088 0.645209
vt 0.827853 0.746835
vt 0.823065 0.746740
vt 0.823034 0.753755
vt 0.327959 0.744571
vt 0.360503 0.747602
vt 0.335625 0.776790
vt 0.368166 0.781973
vt 0.366424 0.727813
vt 0.562965 0.646939
vt 0.575180 0.647300
vt 0.574717 0.646618
vt 0.224355 0.617343
vt 0.257851 0.677461
vt 0.282564 0.629508
vt 0.330891 0.621693
vt 0.348739 0.679492
vt 0.369873 0.631089
vt 0.969459 0.743457
vt 0.958082 0.745082
vt 0.969386 0.744905
vt 0.941127 0.740611
vt 0.939943 0.742286
vt 0.950630 0.741413
vt 0.949427 0.743328
vt 0.926466 0.743791
vt 0.951758 0.744025
vt 0.546565 0.644540
vt 0.558001 0.644587
vt 0.558985 0.643663
vt 0.535787 0.645810
vt 0.547502 0.647457
vt 0.536047 0.644781
vt 0.926637 0.745450
vt 0.943287 0.744517
vt 0.926805 0.739234
vt 0.937303 0.739250
vt 0.927108 0.742331
vt 0.969212 0.742069
vt 0.953378 0.741162
vt 0.385062 0.751747
vt 0.328692 0.728364
vt 0.252157 0.710083
vt 0.236188 0.725235
vt 0.283642 0.746268
vt 0.260635 0.788337
vt 0.290966 0.774936
vt 0.226215 0.770315
vt 0.291577 0.660413
vt 0.224899 0.655181
vt 0.382581 0.666981
vt 0.935564 0.745672
vt 0.951546 0.746017
vt 0.944140 0.746429
vt 0.953762 0.746775
vt 0.969533 0.746420
vt 0.565179 0.643634
vt 0.574694 0.643962
vt 0.944225 0.739738
vt 0.549481 0.648406
vt 0.574877 0.649259
vt 0.541873 0.650550
vt 0.558810 0.651263
vt 0.566068 0.650563
vt 0.535898 0.649184
vt 0.535896 0.647044
vt 0.574547 0.652092
vt 0.575059 0.651139
vt 0.969597 0.739072
vt 0.926787 0.746734
vt 0.545570 0.651729
vt 0.574978 0.644889
vt 0.926340 0.741321
vt 0.958876 0.744301
vt 0.540907 0.643725
vt 0.536119 0.643629
vt 0.536088 0.650644
vt 0.769126 0.744506
vt 0.758762 0.744314
vt 0.768856 0.746469
vt 0.757229 0.744269
vt 0.768662 0.743834
vt 0.740562 0.741750
vt 0.751866 0.741797
vt 0.752926 0.740866
vt 0.729779 0.743596
vt 0.740476 0.743718
vt 0.730025 0.742001
vt 0.741197 0.745022
vt 0.385062 0.751747
vt 0.366424 0.727813
vt 0.352783 0.779523
vt 0.329010 0.727916
vt 0.251806 0.709960
vt 0.236126 0.725277
vt 0.283642 0.746268
vt 0.260635 0.788337
vt 0.290966 0.774936
vt 0.226219 0.770270
vt 0.759126 0.740837
vt 0.768641 0.741165
vt 0.759981 0.747742
vt 0.735853 0.747746
vt 0.752752 0.748467
vt 0.729843 0.746406
vt 0.768494 0.749296
vt 0.769007 0.748343
vt 0.739517 0.748932
vt 0.768931 0.742091
vt 0.734854 0.740928
vt 0.730066 0.740833
vt 0.730035 0.747848
vt 0.335625 0.776790
vt 0.368166 0.781973
vt 0.366424 0.727813
vt 0.562965 0.646939
vt 0.575180 0.647300
vt 0.574717 0.646618
vt 0.546565 0.644540
vt 0.558001 0.644587
vt 0.558985 0.643663
vt 0.535787 0.645810
vt 0.547502 0.647457
vt 0.536047 0.644781
vt 0.385062 0.751747
vt 0.328692 0.728364
vt 0.252157 0.710083
vt 0.236188 0.725235
vt 0.283642 0.746268
vt 0.260635 0.788337
vt 0.290966 0.774936
vt 0.226215 0.770315
vt 0.565179 0.643634
vt 0.574694 0.643962
vt 0.549481 0.648406
vt 0.574877 0.649259
vt 0.541873 0.650550
vt 0.558810 0.651263
vt 0.566068 0.650563
vt 0.535898 0.649184
vt 0.535896 0.647044
vt 0.574547 0.652092
vt 0.575059 0.651139
vt 0.545570 0.651729
vt 0.574978 0.644889
vt 0.540907 0.643725
vt 0.536119 0.643629
vt 0.536088 0.650644
vt 0.340833 0.606774
vt 0.346038 0.605678
vt 0.344788 0.607601
vt 0.333347 0.605678
vt 0.328994 0.627255
vt 0.330862 0.606285
vt 0.338464 0.660766
vt 0.333453 0.664293
vt 0.334521 0.642784
vt 0.333136 0.644963
vt 0.331749 0.689578
vt 0.331930 0.640352
vt 0.326983 0.689083
vt 0.330996 0.655702
vt 0.338735 0.689792
vt 0.340824 0.674685
vt 0.333081 0.687867
vt 0.335341 0.606860
vt 0.338592 0.635239
vt 0.343395 0.613967
vt 0.340833 0.613967
vt 0.341518 0.612928
vt 0.342357 0.609460
vt 0.340833 0.612919
vt 0.340833 0.607610
vt 0.347393 0.607601
vt 0.327607 0.674338
vt 0.327614 0.640183
vt 0.326031 0.654137
vt 0.326282 0.634641
vt 0.326970 0.605678
vt 0.340479 0.605887
vt 0.339603 0.653022
vt 0.324573 0.689450
vt 0.330699 0.690327
vt 0.333541 0.690345
vt 0.331071 0.625925
vt 0.327360 0.756199
vt 0.341968 0.757190
vt 0.328580 0.759119
vt 0.343252 0.754376
vt 0.328065 0.754889
vt 0.367327 0.750596
vt 0.351446 0.750589
vt 0.350417 0.749183
vt 0.382453 0.753367
vt 0.366860 0.754448
vt 0.381705 0.751151
vt 0.366099 0.755962
vt 0.241623 0.649078
vt 0.241354 0.647614
vt 0.243346 0.650218
vt 0.243346 0.646829
vt 0.236501 0.652593
vt 0.235197 0.651784
vt 0.236958 0.649593
vt 0.235006 0.646829
vt 0.236882 0.646829
vt 0.233782 0.648864
vt 0.340493 0.748151
vt 0.328738 0.749389
vt 0.340552 0.759824
vt 0.373776 0.760236
vt 0.350414 0.761115
vt 0.382703 0.757271
vt 0.329432 0.762562
vt 0.328036 0.761375
vt 0.367240 0.762562
vt 0.327783 0.751991
vt 0.373811 0.748260
vt 0.381425 0.749700
vt 0.382473 0.759651
vt 0.241022 0.649982
vt 0.239087 0.649982
vt 0.239189 0.646829
vt 0.371222 0.659124
vt 0.388053 0.657463
vt 0.387321 0.658819
vt 0.347894 0.664358
vt 0.363764 0.663287
vt 0.364711 0.664681
vt 0.332872 0.663198
vt 0.349468 0.660422
vt 0.333898 0.664704
vt 0.238752 0.648308
vt 0.241331 0.646974
vt 0.233367 0.652625
vt 0.232008 0.651802
vt 0.233760 0.649553
vt 0.231804 0.646862
vt 0.233760 0.646829
vt 0.230503 0.649051
vt 0.374729 0.665651
vt 0.386657 0.664266
vt 0.351853 0.657782
vt 0.386957 0.654758
vt 0.341201 0.655236
vt 0.364213 0.652777
vt 0.374085 0.653380
vt 0.332872 0.657911
vt 0.333120 0.661136
vt 0.386154 0.650806
vt 0.387715 0.652169
vt 0.347501 0.652505
vt 0.387631 0.661683
vt 0.341760 0.667020
vt 0.334302 0.666131
vt 0.333091 0.655689
vt 0.237733 0.646829
vt 0.238730 0.651563
vt 0.236981 0.650426
vt 0.541160 0.709418
vt 0.537200 0.729042
vt 0.538899 0.709970
vt 0.545814 0.759522
vt 0.541256 0.762731
vt 0.542227 0.743167
vt 0.540967 0.745149
vt 0.539706 0.785730
vt 0.539871 0.740955
vt 0.535371 0.785280
vt 0.539021 0.754916
vt 0.546060 0.785925
vt 0.547961 0.772183
vt 0.540918 0.784173
vt 0.542973 0.710493
vt 0.545930 0.736304
vt 0.244777 0.646829
vt 0.247107 0.646829
vt 0.246485 0.647774
vt 0.244754 0.648512
vt 0.243369 0.651658
vt 0.243369 0.646829
vt 0.236981 0.652796
vt 0.535939 0.771868
vt 0.535945 0.740802
vt 0.534505 0.753493
vt 0.534733 0.735760
vt 0.535359 0.709418
vt 0.547646 0.709608
vt 0.546850 0.752479
vt 0.533179 0.785614
vt 0.538751 0.786412
vt 0.541336 0.786428
vt 0.539089 0.727834
vn 0.2689 0.9579 0.1003
vn -0.0800 -0.9859 -0.1472
vn 0.9964 -0.0154 -0.0829
vn -0.9915 0.0273 -0.1269
vn 0.8004 -0.0072 -0.5995
vn 0.9913 0.0050 -0.1318
vn 0.6890 -0.0608 0.7222
vn 0.8223 -0.0072 -0.5690
vn -0.9895 -0.0018 -0.1446
vn -0.9972 0.0006 0.0752
vn -0.2722 0.4453 -0.8530
vn 0.3990 0.9090 0.1202
vn -0.3835 -0.8941 0.2312
vn 0.9999 0.0101 -0.0061
vn 0.1459 -0.0880 0.9854
vn -0.6131 -0.0046 -0.7900
vn -0.1941 0.0351 0.9804
vn -0.9722 -0.0230 0.2329
vn -0.9445 0.0214 -0.3279
vn -0.7691 -0.0204 -0.6389
vn -0.2634 0.9588 0.1060
vn 0.0159 -0.9732 -0.2293
vn -0.9988 -0.0118 -0.0467
vn 0.7932 0.0151 0.6087
vn 0.9927 0.0273 -0.1172
vn -0.7798 -0.0072 -0.6260
vn 0.7903 -0.0282 0.6120
vn 0.9740 -0.0261 -0.2249
vn -0.3955 0.0710 -0.9157
vn -0.5075 -0.0711 -0.8587
vn -0.9907 0.0053 -0.1360
vn -0.7055 -0.0601 0.7062
vn -0.7931 -0.0071 -0.6090
vn 0.9904 -0.0033 -0.1384
vn 0.9972 0.0024 0.0747
vn 0.2409 -0.9346 0.2618
vn 0.3867 -0.8891 0.2449
vn 0.7260 0.6727 -0.1428
vn 0.7826 0.5039 0.3656
vn -0.1573 0.9484 0.2754
vn -0.2615 0.9301 -0.2580
vn 0.2818 0.4555 -0.8445
vn -0.3777 0.9178 0.1224
vn -0.1587 -0.9826 -0.0961
vn 0.3490 -0.9021 0.2537
vn -1.0000 0.0084 0.0013
vn -0.1966 -0.0798 0.9772
vn 0.5531 -0.0272 -0.8327
vn 0.0619 -0.0467 0.9970
vn -0.9798 -0.0138 0.1993
vn 0.9455 -0.0175 -0.3251
vn 0.7550 0.0201 -0.6554
vn -0.2762 -0.9552 0.1060
vn 0.1223 0.9821 -0.1432
vn -0.9972 0.0196 -0.0722
vn 0.9920 -0.0280 -0.1231
vn -0.8119 0.0078 -0.5838
vn -0.7737 0.0272 0.6330
vn -0.9690 0.0291 -0.2453
vn 0.3806 -0.0759 -0.9216
vn 0.5173 0.0752 -0.8525
vn -0.9906 -0.0044 -0.1367
vn -0.7055 0.0606 0.7061
vn -0.8242 0.0078 -0.5662
vn 0.9900 0.0021 -0.1412
vn 0.9971 -0.0034 0.0758
vn -0.2844 0.9218 0.2633
vn -0.3925 0.8857 0.2481
vn -0.7314 -0.6651 -0.1505
vn -0.7953 -0.4882 0.3593
vn 0.1726 -0.9479 0.2677
vn 0.2663 -0.9237 -0.2756
vn 0.2958 -0.4531 -0.8409
vn -0.3611 -0.9250 0.1185
vn 0.3830 0.9021 0.1987
vn -0.9998 -0.0100 -0.0165
vn -0.1591 0.0878 0.9833
vn 0.6531 0.0217 -0.7569
vn 0.2778 -0.0590 0.9588
vn -0.0627 0.0485 0.9969
vn 0.9809 0.0140 0.1938
vn -0.4621 -0.8300 0.3123
vn -0.9420 0.0191 -0.3352
vn -0.7723 -0.0203 -0.6350
vn -0.1233 -0.9821 -0.1422
vn 0.9970 -0.0174 -0.0758
vn -0.9921 0.0264 -0.1229
vn 0.8004 -0.0102 -0.5993
vn 0.7747 -0.0366 0.6312
vn 0.9946 0.0204 -0.1014
vn -0.4776 0.0645 -0.8762
vn -0.5986 -0.1136 -0.7930
vn 0.9823 0.0122 -0.1872
vn 0.7196 -0.0581 0.6920
vn -0.4182 -0.0096 -0.9083
vn 0.8242 -0.0094 -0.5662
vn -0.9889 -0.0151 -0.1479
vn -0.9971 0.0040 0.0756
vn 0.4259 -0.8992 0.1003
vn 0.7162 0.6843 -0.1368
vn 0.7970 0.4864 0.3580
vn -0.1585 0.9494 0.2710
vn -0.2541 0.9281 -0.2721
vn -0.7791 0.4756 -0.4083
vn 0.3596 0.9272 0.1053
vn -0.3647 -0.9033 0.2260
vn 0.9999 0.0093 0.0082
vn 0.2397 -0.0867 0.9670
vn -0.6116 -0.0252 -0.7908
vn -0.2106 0.0611 0.9757
vn 0.2096 0.0061 0.9778
vn 0.2774 -0.0520 -0.9594
vn 0.0558 -0.0470 0.9973
vn -0.9796 -0.0150 0.2004
vn -0.8412 0.0132 -0.5405
vn 0.5040 -0.0264 -0.8633
vn 0.8878 0.0122 0.4600
vn -0.8375 0.0074 -0.5464
vn 0.9372 0.0085 0.3486
vn -0.9897 -0.0117 0.1429
vn -0.1524 0.1208 0.9809
vn -0.5280 0.0326 -0.8486
vn 0.7874 -0.0346 0.6155
vn -0.9988 -0.0196 0.0451
vn 0.8504 0.0139 -0.5259
vn -0.1785 0.0169 0.9838
vn -0.9334 -0.0649 -0.3530
vn -0.9818 0.0030 0.1897
vn -0.9707 -0.0380 0.2374
vn -0.4844 -0.0294 -0.8744
vn -0.8710 0.0161 0.4910
vn -0.0489 0.0933 0.9944
vn -0.6012 -0.0868 -0.7944
vn 0.8410 -0.0053 -0.5410
vn 0.8451 0.0765 0.5291
vn -0.0272 -0.0401 0.9988
vn 0.9996 0.0179 -0.0239
vn -0.9654 0.0259 -0.2597
vn 0.1844 0.1176 0.9758
vn 0.5741 0.0324 -0.8182
vn -0.7871 -0.0376 0.6157
vn 0.9949 0.0021 -0.1005
vn 0.8548 -0.0194 0.5186
vn -0.9999 -0.0154 0.0073
vn 0.9948 -0.0284 -0.0980
vn -0.9700 -0.0074 0.2430
vn -0.8085 -0.0207 -0.5881
vn -0.7930 0.0210 -0.6088
vn 0.8169 -0.0148 -0.5765
vn 0.0796 -0.0177 0.9967
vn 0.9332 0.0652 -0.3535
vn 0.9830 -0.0027 0.1835
vn -0.5122 0.0287 -0.8584
vn -0.8951 -0.0110 0.4457
vn 0.7973 0.0099 -0.6036
vn -0.8044 -0.0691 0.5900
vn 0.0220 0.0422 0.9989
vn -0.9343 -0.0081 0.3564
vn 0.9880 0.0081 0.1543
vn 0.1772 -0.1171 0.9772
vn 0.5534 -0.0317 -0.8323
vn -0.7600 0.0456 0.6483
vn -0.9937 -0.0013 -0.1123
vn -0.8535 0.0169 0.5208
vn 0.9999 0.0147 0.0072
vn -0.9952 0.0266 -0.0945
vn 0.9707 0.0072 0.2404
vn 0.8277 0.0208 -0.5608
vn 0.8125 -0.0206 -0.5825
vn -0.8293 0.0136 -0.5587
vn -0.9996 0.0224 -0.0184
vn -0.0841 0.0233 0.9962
vn -0.0126 -0.0465 0.9988
vn -0.9899 -0.0128 -0.1412
vn -0.9839 0.0144 0.1783
vn 0.9060 0.0098 0.4233
vn -0.8121 -0.0088 -0.5834
vn 0.8150 0.0728 0.5749
vn -0.0073 -0.0424 0.9991
vn 0.9243 0.0084 0.3816
vn -0.9884 -0.0075 0.1518
vn -0.1209 0.1207 0.9853
vn -0.8008 0.0162 -0.5987
vn 0.7596 -0.0471 0.6487
vn 0.7879 0.6063 -0.1080
vn 0.9935 0.0015 -0.1141
vn -0.9996 -0.0115 -0.0259
vn 0.9815 0.0104 0.1912
vn 0.9964 -0.0059 0.0847
vn -0.2525 -0.0096 0.9675
vn 0.9952 -0.0266 -0.0940
vn -0.9699 -0.0086 0.2435
vn -0.8090 -0.0206 -0.5874
vn -0.7927 0.0223 -0.6092
vn 0.9737 -0.0352 0.2253
vn -0.9998 0.0088 0.0199
vn 0.6100 -0.0878 -0.7876
vn 0.9602 -0.0252 -0.2782
vn 0.9624 -0.0226 -0.2705
vn 0.9829 0.0244 -0.1828
vn 0.9457 0.0472 -0.3217
vn 0.9717 -0.0189 0.2354
vn -0.9947 0.0448 0.0928
vn 0.9994 0.0099 0.0332
vn -0.9895 -0.0111 -0.1439
vn -0.9876 -0.0260 -0.1551
vn -0.9757 0.0214 -0.2180
vn 0.9019 -0.0077 0.4318
vn 0.9117 -0.0248 0.4101
vn 0.9868 -0.0018 -0.1617
vn 0.9281 -0.0376 0.3704
vn -0.1991 -0.1489 0.9686
vn -0.9341 0.0252 0.3560
vn 0.9748 0.0108 0.2230
vn 0.9818 -0.0147 -0.1891
vn 0.9723 0.0209 0.2326
vn 0.9944 -0.0447 0.0953
vn -0.9620 0.0426 0.2698
vn 0.9997 -0.0094 0.0239
vn -0.6691 0.0758 -0.7393
vn -0.9581 0.0258 -0.2854
vn -0.9614 0.0221 -0.2743
vn -0.9808 -0.0206 -0.1939
vn -0.9412 -0.0376 -0.3358
vn -0.9032 0.0069 0.4292
vn -0.9134 0.0241 0.4064
vn -0.9870 0.0019 -0.1610
vn 0.9364 -0.0262 0.3499
vn 0.1909 0.1577 0.9689
vn -0.9763 -0.0109 0.2163
vn -0.9829 0.0131 -0.1838
vn -0.9723 -0.0227 0.2327
vn 0.9573 -0.0439 0.2858
vn -0.9953 0.0663 0.0700
vn 0.6492 -0.0823 -0.7562
vn 0.9600 -0.0280 -0.2788
vn 0.9628 -0.0248 -0.2689
vn 0.9825 0.0202 -0.1854
vn 0.9495 0.0345 -0.3119
vn 0.9857 -0.0046 -0.1684
vn 0.9824 0.0070 0.1865
vn 0.9754 0.0123 0.2201
vn 0.9826 -0.0132 -0.1851
vn -0.4419 -0.8508 0.2843
vn -0.7575 -0.0209 -0.6525
vn 0.7853 -0.0283 0.6184
vn 0.9993 0.0289 -0.0229
vn 0.7354 -0.5977 0.3193
vn 0.4088 -0.9059 0.1104
vn 0.7063 0.6923 -0.1477
vn 0.7894 0.4942 0.3641
vn -0.1995 0.9437 0.2637
vn -0.2482 0.9285 -0.2761
vn 0.0611 -0.0486 0.9970
vn -0.8335 0.0226 -0.5520
vn -0.1596 0.0166 0.9870
vn -0.9890 -0.0220 -0.1462
vn -0.8521 -0.0039 -0.5234
vn -0.9880 0.0027 0.1541
vn 0.8332 0.0747 0.5479
vn -0.9712 -0.0097 0.2382
vn -0.0595 -0.0395 0.9974
vn 0.9822 -0.0042 -0.1879
vn 0.8512 -0.0195 0.5245
vn 0.3782 -0.0750 -0.9227
vn 0.9958 -0.0260 -0.0874
vn -0.9688 -0.0081 0.2477
vn -0.9310 -0.0224 -0.3644
vn -0.7930 0.0287 -0.6086
vn -0.9781 0.0221 0.2072
vn 0.6099 -0.0878 -0.7876
vn 0.9050 -0.0075 0.4254
vn 0.9264 -0.0247 0.3756
vn 0.9866 -0.0026 -0.1631
vn -0.2610 -0.1498 0.9537
vn 0.9768 0.0112 0.2138
vn 0.9833 -0.0120 -0.1814
vn 0.8563 0.5155 -0.0319
vn 0.5701 0.8212 0.0249
vn -0.5969 -0.8016 0.0351
vn -0.9276 0.3714 0.0409
vn 0.2411 0.9679 -0.0712
vn 0.3217 0.9439 0.0742
vn -0.1486 -0.2801 0.9484
vn -0.2461 -0.2703 0.9308
vn -0.5392 0.1839 -0.8219
vn -0.5999 -0.4861 -0.6355
vn 0.0960 -0.2914 -0.9518
vn 0.1619 0.2769 -0.9472
vn -0.0358 -0.9984 0.0443
vn 0.9428 -0.3326 0.0218
vn 0.1041 -0.9944 -0.0162
vn 0.8324 0.5459 0.0952
vn 0.9482 -0.3176 -0.0047
vn -0.6741 -0.7318 -0.1003
vn 0.0157 -0.9992 0.0381
vn -0.9850 0.1725 -0.0034
vn -0.6887 -0.7246 0.0257
vn 0.9996 -0.0127 0.0253
vn -0.9847 0.1682 0.0462
vn 0.9171 -0.3984 0.0115
vn 0.6210 0.7834 0.0261
vn 0.6004 0.7993 -0.0261
vn 0.9845 -0.1593 -0.0729
vn -0.7694 -0.6387 0.0108
vn -0.7880 -0.6147 0.0353
vn -0.9619 0.2733 0.0030
vn 0.1165 -0.9828 0.1433
vn -0.9294 -0.3687 -0.0169
vn -0.9482 0.3167 0.0234
vn -0.2854 -0.3184 -0.9040
vn -0.5561 0.8307 -0.0252
vn 0.5904 -0.8063 -0.0350
vn 0.9981 0.0397 0.0475
vn 0.5460 -0.4111 -0.7300
vn 0.2626 -0.1230 -0.9570
vn 0.5177 0.1877 0.8347
vn 0.6085 -0.4868 0.6267
vn -0.1224 -0.2805 0.9520
vn -0.1532 0.2956 0.9429
vn 0.0353 -0.9983 -0.0462
vn -0.6564 0.7539 0.0293
vn -0.0928 -0.9956 0.0159
vn -0.9681 0.2482 -0.0354
vn -0.6844 0.7291 -0.0052
vn -0.9653 -0.2611 0.0043
vn 0.6562 -0.7484 0.0968
vn -0.9201 -0.3914 -0.0151
vn -0.0343 -0.9987 -0.0375
vn 0.9491 0.3148 -0.0067
vn 0.6831 -0.7299 -0.0258
vn 0.2294 0.9705 -0.0749
vn 0.9877 0.1503 -0.0424
vn -0.9141 -0.4052 -0.0126
vn -0.8269 0.5614 -0.0328
vn -0.6003 0.7990 0.0357
vn -0.9381 -0.3446 0.0349
vn 0.7751 -0.6318 -0.0105
vn 0.8175 -0.5748 -0.0358
vn 0.9613 0.2756 -0.0042
vn -0.1542 -0.9773 -0.1456
vn 0.9347 -0.3549 0.0177
vn 0.9523 0.3046 -0.0191
vn -0.1488 -0.6394 -0.7544
vn 0.9970 0.0377 -0.0674
vn -0.9921 0.0957 -0.0806
vn 0.8000 0.3785 -0.4655
vn 0.9822 0.1280 -0.1374
vn 0.7194 -0.4813 0.5009
vn -0.4177 0.5769 -0.7019
vn 0.8238 0.3577 -0.4397
vn -0.9889 0.0854 -0.1215
vn -0.9971 -0.0461 0.0602
vn -0.8086 0.5846 -0.0662
vn 0.4234 0.6110 0.6689
vn -0.4248 -0.8347 -0.3505
vn 0.9999 0.0006 0.0112
vn 0.2396 -0.6759 0.6969
vn -0.6111 0.4918 -0.6202
vn -0.2105 -0.5879 0.7811
vn -0.8289 0.3674 -0.4218
vn 0.9057 -0.2657 0.3302
vn -0.8118 0.3691 -0.4525
vn 0.9241 -0.2398 0.2975
vn -0.9884 -0.1023 0.1127
vn -0.1210 -0.5575 0.8213
vn -0.8004 0.3948 -0.4512
vn 0.7593 -0.4465 0.4734
vn 0.8392 0.4824 0.2509
vn 0.9363 -0.2414 0.2550
vn -0.9723 -0.1639 0.1668
vn 0.9574 -0.2115 0.1965
vn -0.9961 -0.0030 0.0887
vn 0.6494 0.4340 -0.6244
vn 0.9600 0.1614 -0.2288
vn 0.9629 0.1571 -0.2196
vn 0.9825 0.1319 -0.1318
vn 0.9495 0.2223 -0.2215
vn -0.8566 0.5155 0.0211
vn -0.5697 0.8212 -0.0321
vn 0.5973 -0.8016 -0.0276
vn 0.9306 0.3610 -0.0605
vn -0.2420 0.9679 0.0681
vn -0.3436 0.9309 -0.1239
vn 0.1606 -0.2801 -0.9464
vn 0.2579 -0.2703 -0.9276
vn 0.5287 0.1839 0.8286
vn 0.5918 -0.4861 0.6430
vn -0.1081 -0.2914 0.9505
vn -0.1739 0.2769 0.9450
vn 0.0363 -0.9984 -0.0439
vn -0.9425 -0.3326 -0.0337
vn -0.1043 -0.9944 0.0149
vn -0.8278 0.5381 -0.1583
vn -0.9482 -0.3176 -0.0073
vn 0.6727 -0.7318 0.1089
vn -0.0152 -0.9992 -0.0383
vn 0.9865 0.1631 0.0156
vn 0.6890 -0.7246 -0.0170
vn -0.9992 -0.0127 -0.0379
vn 0.9852 0.1682 -0.0338
vn -0.9169 -0.3984 -0.0231
vn -0.6206 0.7834 -0.0339
vn -0.6007 0.7993 0.0185
vn -0.9331 -0.3178 0.1685
vn 0.7860 -0.6180 -0.0166
vn 0.9754 -0.2197 -0.0179
vn 0.9603 0.2787 0.0066
vn 0.0247 -0.8597 -0.5102
vn 0.9291 -0.3687 0.0286
vn 0.9485 0.3167 -0.0114
vn 0.2739 -0.3184 0.9075
vn 0.5557 0.8307 0.0323
vn -0.5908 -0.8063 0.0275
vn -0.9974 0.0397 -0.0601
vn -0.5552 -0.4111 0.7230
vn -0.2747 -0.1230 0.9536
vn -0.5071 0.1877 -0.8412
vn -0.6005 -0.4868 -0.6343
vn 0.1345 -0.2805 -0.9504
vn 0.1652 0.2956 -0.9409
vn -0.0358 -0.9983 0.0457
vn 0.6567 0.7539 -0.0210
vn 0.0930 -0.9956 -0.0147
vn 0.9675 0.2482 0.0476
vn 0.6843 0.7291 0.0138
vn 0.9653 -0.2611 0.0079
vn -0.6549 -0.7484 -0.1051
vn 0.9198 -0.3914 0.0267
vn 0.0338 -0.9987 0.0379
vn -0.9491 0.3148 -0.0053
vn -0.6833 -0.7299 0.0172
vn -0.2303 0.9705 0.0720
vn -0.9882 0.1503 0.0300
vn 0.9139 -0.4052 0.0242
vn 0.8264 0.5614 0.0432
vn 0.6007 0.7990 -0.0281
vn 0.9385 -0.3446 -0.0231
vn -0.7752 -0.6318 0.0007
vn -0.8179 -0.5748 0.0255
vn -0.9612 0.2756 -0.0079
vn 0.1524 -0.9773 0.1475
vn -0.9345 -0.3549 -0.0295
vn -0.9524 0.3046 0.0071
vn 0.1392 -0.6394 0.7562
vn -0.9978 0.0377 0.0548
vn 0.9910 0.0957 0.0931
vn -0.8059 0.3785 0.4554
vn -0.9839 0.1280 0.1250
vn -0.7130 -0.4813 -0.5099
vn 0.4087 0.5769 0.7072
vn -0.8293 0.3577 0.4292
vn 0.9873 0.0854 0.1340
vn 0.9978 -0.0461 -0.0476
vn 0.8077 0.5846 0.0764
vn -0.4149 0.6110 -0.6742
vn 0.4203 -0.8347 0.3559
vn -0.9997 0.0006 -0.0239
vn -0.2307 -0.6759 -0.6999
vn 0.6032 0.4919 0.6279
vn 0.2204 -0.5879 -0.7784
vn 0.8235 0.3675 0.4322
vn -0.9015 -0.2657 -0.3416
vn 0.8060 0.3691 0.4628
vn -0.9203 -0.2398 -0.3091
vn 0.9897 -0.1023 -0.1002
vn 0.1315 -0.5575 -0.8197
vn 0.7946 0.3948 0.4613
vn -0.7533 -0.4465 -0.4830
vn -0.8360 0.4824 -0.2615
vn -0.9330 -0.2414 -0.2668
vn 0.9743 -0.1639 -0.1545
vn -0.9549 -0.2115 -0.2086
vn 0.9971 -0.0030 -0.0761
vn -0.6573 0.4340 0.6161
vn -0.9628 0.1614 0.2167
vn -0.9656 0.1571 0.2074
vn -0.9840 0.1319 0.1194
vn -0.9522 0.2223 0.2095
usemtl None
s off
f 1/1/1 5/2/1 3/3/1
f 6/4/2 16/5/2 7/6/2
f 2/7/3 15/8/3 7/9/3
f 19/10/4 11/11/4 14/12/4
f 8/13/5 5/14/5 13/15/5
f 5/14/6 4/16/6 17/17/6
f 1/18/7 19/10/7 20/19/7
f 5/14/8 17/17/8 13/15/8
f 19/10/9 21/20/9 11/11/9
f 14/12/10 16/21/10 10/22/10
f 3/3/11 5/2/11 21/23/11
f 4/24/12 5/2/12 1/1/12
f 7/6/13 16/5/13 2/25/13
f 17/17/14 20/26/14 15/8/14
f 9/27/15 18/28/15 10/29/15
f 8/13/16 2/7/16 16/21/16
f 10/29/17 6/30/17 9/27/17
f 14/12/18 10/22/18 18/31/18 19/10/18
f 30/32/19 25/33/19 29/34/19
f 56/35/20 30/32/20 31/36/20
f 23/37/21 34/38/21 36/39/21
f 37/40/22 38/41/22 50/42/22
f 24/43/23 38/44/23 49/45/23
f 45/46/24 37/47/24 40/48/24
f 53/49/25 48/50/25 44/51/25
f 39/52/26 47/53/26 36/54/26
f 33/55/27 42/56/27 60/57/27
f 57/58/28 55/59/28 26/60/28
f 41/61/29 25/33/29 55/59/29
f 57/58/30 41/61/30 55/59/30
f 36/54/31 51/62/31 35/63/31
f 23/64/32 43/65/32 53/49/32
f 36/54/33 47/53/33 51/62/33
f 53/49/34 44/51/34 54/66/34
f 48/50/35 40/48/35 50/67/35
f 26/68/36 27/69/36 57/70/36
f 57/70/37 27/69/37 28/71/37
f 31/72/38 30/73/38 32/74/38
f 32/74/39 59/75/39 22/76/39
f 29/77/40 32/74/40 30/73/40
f 32/74/41 29/77/41 59/75/41
f 34/38/42 54/78/42 36/39/42
f 35/79/43 23/37/43 36/39/43
f 37/40/44 45/80/44 38/41/44
f 38/41/45 24/81/45 50/42/45
f 51/62/46 49/45/46 43/82/46
f 49/45/47 40/83/47 52/84/47
f 39/52/48 50/67/48 24/43/48
f 61/85/49 42/56/49 22/86/49
f 25/33/50 61/87/50 29/34/50
f 70/88/51 65/89/51 69/90/51
f 96/91/52 70/88/52 71/92/52
f 63/93/53 76/94/53 74/95/53
f 77/96/54 89/97/54 78/98/54
f 64/99/55 88/100/55 78/101/55
f 92/102/56 84/103/56 87/104/56
f 79/105/57 76/106/57 86/107/57
f 73/108/58 83/109/58 100/110/58
f 97/111/59 95/112/59 66/113/59
f 82/114/60 65/89/60 95/112/60
f 97/111/61 82/114/61 95/112/61
f 76/106/62 75/115/62 90/116/62
f 63/117/63 92/102/63 93/118/63
f 76/106/64 90/116/64 86/107/64
f 92/102/65 94/119/65 84/103/65
f 87/104/66 89/120/66 81/121/66
f 66/122/67 67/123/67 97/124/67
f 97/124/68 67/123/68 68/125/68
f 71/126/69 70/127/69 72/128/69
f 72/128/70 99/129/70 62/130/70
f 69/131/71 72/128/71 70/127/71
f 72/128/72 69/131/72 99/129/72
f 74/95/73 76/94/73 94/132/73
f 75/133/74 76/94/74 63/93/74
f 78/98/75 89/97/75 64/134/75
f 90/116/76 93/135/76 88/100/76
f 80/136/77 91/137/77 81/138/77
f 79/105/78 64/99/78 89/120/78
f 81/138/79 77/139/79 80/136/79
f 101/140/80 83/109/80 62/141/80
f 65/89/81 101/142/81 69/90/81
f 138/143/82 137/144/82 106/145/82
f 109/146/83 105/147/83 108/148/83
f 136/149/84 109/146/84 110/150/84
f 115/151/85 128/152/85 116/153/85
f 104/154/86 127/155/86 116/156/86
f 131/157/87 123/158/87 126/159/87
f 117/160/88 133/161/88 125/162/88
f 139/163/89 121/164/89 141/165/89
f 137/166/90 135/167/90 139/163/90
f 120/168/91 105/147/91 135/167/91
f 137/166/92 120/168/92 135/167/92
f 133/161/93 113/169/93 129/170/93
f 103/171/94 131/157/94 132/172/94
f 134/173/95 133/161/95 123/158/95
f 133/161/96 129/170/96 125/162/96
f 131/157/97 134/173/97 123/158/97
f 126/159/98 128/174/98 119/175/98
f 138/143/99 106/145/99 107/176/99
f 110/177/100 109/178/100 111/179/100
f 111/179/101 140/180/101 102/181/101
f 108/182/102 111/179/102 109/178/102
f 111/179/103 108/182/103 140/180/103
f 134/183/104 114/184/104 133/185/104
f 113/186/105 114/184/105 103/187/105
f 116/153/106 128/152/106 104/188/106
f 129/170/107 132/189/107 127/155/107
f 118/190/108 130/191/108 119/192/108
f 117/160/109 104/154/109 128/174/109
f 119/192/110 115/193/110 118/190/110
f 122/194/111 112/195/111 141/196/111
f 138/197/112 120/168/112 137/166/112
f 142/198/113 121/164/113 102/199/113
f 105/147/114 142/200/114 108/148/114
f 11/11/115 8/13/115 14/12/115
f 5/14/116 11/11/116 21/20/116
f 20/26/117 18/28/117 9/27/117
f 8/13/118 16/21/118 14/12/118
f 9/27/119 15/8/119 20/26/119
f 10/22/120 16/21/120 6/201/120
f 19/10/121 18/31/121 20/19/121
f 5/14/122 8/13/122 11/11/122
f 4/16/123 1/202/123 20/26/123
f 45/203/124 49/45/124 38/44/124
f 39/52/125 44/51/125 48/50/125
f 58/204/126 60/205/126 61/87/126
f 28/206/127 41/61/127 57/58/127
f 58/204/128 61/87/128 25/33/128
f 51/62/129 43/82/129 35/63/129
f 36/54/130 54/66/130 44/51/130
f 43/82/131 49/45/131 52/84/131
f 45/203/132 40/83/132 49/45/132
f 46/207/133 47/53/133 39/52/133
f 39/52/134 48/50/134 50/67/134
f 42/56/135 61/85/135 60/57/135
f 61/87/136 22/208/136 59/209/136
f 40/48/137 37/47/137 50/67/137
f 49/45/138 46/207/138 24/43/138
f 53/49/139 43/65/139 52/210/139
f 36/54/140 44/51/140 39/52/140
f 35/63/141 43/82/141 23/211/141
f 55/59/142 56/35/142 26/60/142
f 33/212/143 60/205/143 58/204/143
f 58/204/144 25/33/144 41/61/144
f 56/35/145 31/36/145 32/213/145
f 61/87/146 59/209/146 29/34/146
f 25/33/147 30/32/147 56/35/147
f 55/59/148 25/33/148 56/35/148
f 84/103/149 79/105/149 87/104/149
f 98/214/150 100/215/150 101/142/150
f 68/216/151 82/114/151 97/111/151
f 98/214/152 101/142/152 65/89/152
f 76/106/153 84/103/153 94/119/153
f 93/135/154 91/137/154 80/136/154
f 79/105/155 89/120/155 87/104/155
f 83/109/156 101/140/156 100/110/156
f 101/142/157 62/217/157 99/218/157
f 80/136/158 88/100/158 93/135/158
f 81/121/159 89/120/159 77/219/159
f 92/102/160 91/220/160 93/118/160
f 76/106/161 79/105/161 84/103/161
f 75/115/162 63/221/162 93/135/162
f 95/112/163 96/91/163 66/113/163
f 73/222/164 100/215/164 98/214/164
f 98/214/165 65/89/165 82/114/165
f 96/91/166 71/92/166 72/223/166
f 101/142/167 99/218/167 69/90/167
f 65/89/168 70/88/168 96/91/168
f 95/112/169 65/89/169 96/91/169
f 123/158/170 117/160/170 126/159/170
f 120/168/171 107/224/171 122/194/171
f 122/194/172 141/196/172 142/200/172
f 107/224/173 112/195/173 122/194/173
f 107/224/174 120/168/174 138/197/174
f 122/194/175 142/200/175 105/147/175
f 132/189/176 130/191/176 118/190/176
f 117/160/177 128/174/177 126/159/177
f 121/164/178 142/198/178 141/165/178
f 142/200/179 102/225/179 140/226/179
f 118/190/180 127/155/180 132/189/180
f 119/175/181 128/174/181 115/227/181
f 131/157/182 130/228/182 132/172/182
f 133/161/183 117/160/183 123/158/183
f 113/169/184 103/229/184 132/189/184
f 113/169/185 133/161/185 114/230/185
f 135/167/186 136/149/186 139/163/186
f 122/194/187 105/147/187 120/168/187
f 112/231/188 106/232/188 139/163/188
f 139/163/189 106/232/189 137/166/189
f 107/224/190 106/233/190 112/195/190
f 136/149/191 110/150/191 111/234/191
f 142/200/192 140/226/192 108/148/192
f 105/147/193 109/146/193 136/149/193
f 135/167/194 105/147/194 136/149/194
f 17/17/195 4/16/195 20/26/195
f 1/18/196 3/235/196 21/20/196 19/10/196
f 12/236/197 8/13/197 13/15/197
f 12/236/198 13/15/198 15/8/198
f 13/15/199 17/17/199 15/8/199
f 12/236/200 2/7/200 8/13/200
f 15/8/201 2/7/201 12/236/201
f 52/210/202 40/48/202 48/50/202 53/49/202
f 41/61/203 28/206/203 58/204/203
f 23/64/204 53/49/204 54/66/204 34/237/204
f 49/45/205 47/53/205 46/207/205
f 49/45/206 51/62/206 47/53/206
f 24/43/207 46/207/207 39/52/207
f 26/60/208 33/55/208 58/238/208 27/239/208
f 33/55/209 26/60/209 42/56/209
f 56/35/210 42/56/210 26/60/210
f 15/8/211 9/27/211 6/30/211 7/9/211
f 58/204/212 28/206/212 27/240/212
f 88/100/213 80/136/213 77/139/213 78/101/213
f 22/86/214 42/56/214 32/213/214
f 32/213/215 42/56/215 56/35/215
f 87/104/216 81/121/216 91/220/216 92/102/216
f 82/114/217 68/216/217 98/214/217
f 90/116/218 75/115/218 93/135/218
f 63/117/219 74/241/219 94/119/219 92/102/219
f 85/242/220 79/105/220 86/107/220
f 85/242/221 86/107/221 88/100/221
f 86/107/222 90/116/222 88/100/222
f 85/242/223 64/99/223 79/105/223
f 88/100/224 64/99/224 85/242/224
f 66/113/225 73/108/225 98/243/225 67/244/225
f 73/108/226 66/113/226 83/109/226
f 96/91/227 83/109/227 66/113/227
f 127/155/228 118/190/228 115/193/228 116/156/228
f 98/214/229 68/216/229 67/245/229
f 62/141/230 83/109/230 72/223/230
f 72/223/231 83/109/231 96/91/231
f 126/159/232 119/175/232 130/228/232 131/157/232
f 129/170/233 113/169/233 132/189/233
f 103/171/234 114/246/234 134/173/234 131/157/234
f 124/247/235 117/160/235 125/162/235
f 124/247/236 125/162/236 127/155/236
f 125/162/237 129/170/237 127/155/237
f 124/247/238 104/154/238 117/160/238
f 127/155/239 104/154/239 124/247/239
f 136/149/240 121/164/240 139/163/240
f 139/163/241 141/165/241 112/231/241
f 102/199/242 121/164/242 111/234/242
f 111/234/243 121/164/243 136/149/243
f 178/248/244 177/249/244 148/250/244
f 176/251/245 150/252/245 151/253/245
f 144/254/1 156/255/1 154/256/1
f 157/257/2 169/258/2 158/259/2
f 145/260/3 168/261/3 158/262/3
f 172/263/4 164/264/4 167/265/4
f 159/266/5 156/267/5 166/268/5
f 153/269/246 162/270/246 181/271/246
f 177/272/247 175/273/247 147/274/247
f 156/267/6 155/275/6 170/276/6
f 144/277/7 172/263/7 173/278/7
f 156/267/8 170/276/8 166/268/8
f 172/263/9 174/279/9 164/264/9
f 167/265/10 169/280/10 161/281/10
f 147/282/248 148/250/248 177/249/248
f 178/248/249 148/250/249 149/283/249
f 151/284/250 150/285/250 152/286/250
f 152/286/251 180/287/251 143/288/251
f 146/289/252 152/286/252 150/285/252
f 152/286/253 146/289/253 180/287/253
f 154/256/11 156/255/11 174/290/11
f 155/291/12 156/255/12 144/254/12
f 158/259/13 169/258/13 145/292/13
f 170/276/14 173/293/14 168/261/14
f 160/294/15 171/295/15 161/296/15
f 159/266/16 145/260/16 169/280/16
f 161/296/17 157/297/17 160/294/17
f 182/298/254 162/270/254 143/299/254
f 167/265/18 161/281/18 171/300/18 172/263/18
f 164/264/115 159/266/115 167/265/115
f 175/273/255 163/301/255 146/302/255
f 179/303/256 181/304/256 182/305/256
f 149/306/257 163/301/257 178/307/257
f 178/307/258 163/301/258 175/273/258
f 179/303/259 182/305/259 163/301/259
f 156/267/116 164/264/116 174/279/116
f 173/293/117 171/295/117 160/294/117
f 159/266/118 169/280/118 167/265/118
f 162/270/260 182/298/260 181/271/260
f 163/301/261 182/305/261 146/302/261
f 182/305/262 143/308/262 180/309/262
f 160/294/119 168/261/119 173/293/119
f 161/281/120 169/280/120 157/310/120
f 172/263/121 171/300/121 173/278/121
f 156/267/122 159/266/122 164/264/122
f 155/275/123 144/311/123 173/293/123
f 175/273/263 176/251/263 147/274/263
f 153/312/264 181/304/264 179/303/264
f 177/272/265 178/307/265 175/273/265
f 176/251/266 151/253/266 152/313/266
f 182/305/267 180/309/267 146/302/267
f 146/302/268 150/252/268 176/251/268
f 175/273/269 146/302/269 176/251/269
f 163/301/270 149/306/270 179/303/270
f 170/276/195 155/275/195 173/293/195
f 144/277/196 154/314/196 174/279/196 172/263/196
f 165/315/271 159/266/271 166/268/271
f 165/315/198 166/268/198 168/261/198
f 166/268/199 170/276/199 168/261/199
f 165/315/200 145/260/200 159/266/200
f 168/261/201 145/260/201 165/315/201
f 147/274/272 153/269/272 179/316/272 148/317/272
f 153/269/273 147/274/273 162/270/273
f 176/251/274 162/270/274 147/274/274
f 179/303/275 149/306/275 148/318/275
f 143/299/276 162/270/276 152/313/276
f 152/313/277 162/270/277 176/251/277
f 168/261/211 160/294/211 157/297/211 158/262/211
f 189/319/278 184/320/278 188/321/278
f 196/322/279 189/319/279 190/323/279
f 192/324/280 194/325/280 200/326/280
f 197/327/281 195/328/281 185/329/281
f 193/330/282 184/320/282 195/328/282
f 197/327/283 193/330/283 195/328/283
f 185/331/284 186/332/284 197/333/284
f 197/333/285 186/332/285 187/334/285
f 190/335/286 189/336/286 191/337/286
f 191/337/287 199/338/287 183/339/287
f 188/340/288 191/337/288 189/336/288
f 191/337/289 188/340/289 199/338/289
f 201/341/290 194/325/290 183/342/290
f 184/320/291 201/343/291 188/321/291
f 198/344/292 200/345/292 201/343/292
f 187/346/293 193/330/293 197/327/293
f 198/344/294 201/343/294 184/320/294
f 194/325/295 201/341/295 200/326/295
f 201/343/296 183/347/296 199/348/296
f 195/328/297 196/322/297 185/329/297
f 192/349/298 200/345/298 198/344/298
f 198/344/299 184/320/299 193/330/299
f 196/322/300 190/323/300 191/350/300
f 201/343/301 199/348/301 188/321/301
f 184/320/302 189/319/302 196/322/302
f 195/328/303 184/320/303 196/322/303
f 193/330/304 187/346/304 198/344/304
f 185/329/305 192/324/305 198/351/305 186/352/305
f 192/324/306 185/329/306 194/325/306
f 196/322/307 194/325/307 185/329/307
f 198/344/308 187/346/308 186/353/308
f 183/342/309 194/325/309 191/350/309
f 191/350/310 194/325/310 196/322/310
f 216/354/311 215/355/311 205/356/311
f 214/357/312 207/358/312 208/359/312
f 210/360/313 211/361/313 219/362/313
f 215/363/314 213/364/314 204/365/314
f 204/366/315 205/356/315 215/355/315
f 216/354/316 205/356/316 206/367/316
f 208/368/317 207/369/317 209/370/317
f 209/370/318 218/371/318 202/372/318
f 203/373/319 209/370/319 207/369/319
f 209/370/320 203/373/320 218/371/320
f 220/374/321 211/361/321 202/375/321
f 213/364/322 212/376/322 203/377/322
f 217/378/323 219/379/323 220/380/323
f 206/381/324 212/376/324 216/382/324
f 216/382/325 212/376/325 213/364/325
f 217/378/326 220/380/326 212/376/326
f 211/361/327 220/374/327 219/362/327
f 212/376/328 220/380/328 203/377/328
f 220/380/329 202/383/329 218/384/329
f 213/364/330 214/357/330 204/365/330
f 210/385/331 219/379/331 217/378/331
f 215/363/332 216/382/332 213/364/332
f 214/357/333 208/359/333 209/386/333
f 220/380/334 218/384/334 203/377/334
f 203/377/335 207/358/335 214/357/335
f 213/364/336 203/377/336 214/357/336
f 212/376/337 206/381/337 217/378/337
f 204/365/338 210/360/338 217/387/338 205/388/338
f 210/360/339 204/365/339 211/361/339
f 214/357/340 211/361/340 204/365/340
f 217/378/341 206/381/341 205/389/341
f 202/375/342 211/361/342 209/386/342
f 209/386/343 211/361/343 214/357/343
f 225/390/344 235/391/344 226/392/344
f 222/393/345 234/394/345 226/395/345
f 238/396/346 230/397/346 233/398/346
f 227/399/347 240/400/347 232/401/347
f 240/400/348 223/402/348 236/403/348
f 221/404/349 238/396/349 239/405/349
f 241/406/350 240/400/350 230/397/350
f 240/400/351 236/403/351 232/401/351
f 238/396/352 241/406/352 230/397/352
f 233/398/353 235/407/353 229/408/353
f 241/409/354 224/410/354 240/411/354
f 223/412/355 224/413/355 221/414/355
f 226/392/356 235/391/356 222/415/356
f 236/403/357 239/416/357 234/394/357
f 228/417/358 237/418/358 229/419/358
f 227/399/359 222/393/359 235/407/359
f 229/419/360 225/420/360 228/417/360
f 230/397/361 227/399/361 233/398/361
f 239/416/362 237/418/362 228/417/362
f 227/399/363 235/407/363 233/398/363
f 228/417/364 234/394/364 239/416/364
f 229/408/365 235/407/365 225/421/365
f 238/396/366 237/422/366 239/405/366
f 240/400/367 227/399/367 230/397/367
f 223/402/368 221/423/368 239/416/368
f 223/402/369 240/400/369 224/424/369
f 234/394/370 228/417/370 225/420/370 226/395/370
f 233/398/371 229/408/371 237/422/371 238/396/371
f 236/403/372 223/402/372 239/416/372
f 221/404/373 224/425/373 241/406/373 238/396/373
f 231/426/374 227/399/374 232/401/374
f 231/426/375 232/401/375 234/394/375
f 232/401/376 236/403/376 234/394/376
f 231/426/377 222/393/377 227/399/377
f 234/394/378 222/393/378 231/426/378
f 248/427/379 243/428/379 247/429/379
f 255/430/380 248/427/380 249/431/380
f 251/432/381 253/433/381 259/434/381
f 256/435/382 254/436/382 244/437/382
f 252/438/383 243/428/383 254/436/383
f 256/435/384 252/438/384 254/436/384
f 244/439/385 245/440/385 256/441/385
f 256/441/386 245/440/386 246/442/386
f 249/443/387 248/444/387 250/445/387
f 250/445/388 258/446/388 242/447/388
f 247/448/389 250/445/389 248/444/389
f 250/445/390 247/448/390 258/446/390
f 260/449/391 253/433/391 242/450/391
f 243/428/392 260/451/392 247/429/392
f 257/452/393 259/453/393 260/451/393
f 246/454/394 252/438/394 256/435/394
f 257/452/395 260/451/395 243/428/395
f 253/433/396 260/449/396 259/434/396
f 260/451/397 242/455/397 258/456/397
f 254/436/398 255/430/398 244/437/398
f 251/457/399 259/453/399 257/452/399
f 257/452/400 243/428/400 252/438/400
f 255/430/401 249/431/401 250/458/401
f 260/451/402 258/456/402 247/429/402
f 243/428/403 248/427/403 255/430/403
f 254/436/404 243/428/404 255/430/404
f 252/438/405 246/454/405 257/452/405
f 244/437/406 251/432/406 257/459/406 245/460/406
f 251/432/407 244/437/407 253/433/407
f 255/430/408 253/433/408 244/437/408
f 257/452/409 246/454/409 245/461/409
f 242/450/410 253/433/410 250/458/410
f 250/458/411 253/433/411 255/430/411
f 275/462/412 274/463/412 264/464/412
f 273/465/413 266/466/413 267/467/413
f 269/468/414 270/469/414 278/470/414
f 274/471/415 272/472/415 263/473/415
f 263/474/416 264/464/416 274/463/416
f 275/462/417 264/464/417 265/475/417
f 267/476/418 266/477/418 268/478/418
f 268/478/419 277/479/419 261/480/419
f 262/481/420 268/478/420 266/477/420
f 268/478/421 262/481/421 277/479/421
f 279/482/422 270/469/422 261/483/422
f 272/472/423 271/484/423 262/485/423
f 276/486/424 278/487/424 279/488/424
f 265/489/425 271/484/425 275/490/425
f 275/490/426 271/484/426 272/472/426
f 276/486/427 279/488/427 271/484/427
f 270/469/428 279/482/428 278/470/428
f 271/484/429 279/488/429 262/485/429
f 279/488/430 261/491/430 277/492/430
f 272/472/431 273/465/431 263/473/431
f 269/493/432 278/487/432 276/486/432
f 274/471/433 275/490/433 272/472/433
f 273/465/434 267/467/434 268/494/434
f 279/488/435 277/492/435 262/485/435
f 262/485/436 266/466/436 273/465/436
f 272/472/437 262/485/437 273/465/437
f 271/484/438 265/489/438 276/486/438
f 263/473/439 269/468/439 276/495/439 264/496/439
f 269/468/440 263/473/440 270/469/440
f 273/465/441 270/469/441 263/473/441
f 276/486/442 265/489/442 264/497/442
f 261/483/443 270/469/443 268/494/443
f 268/494/444 270/469/444 273/465/444
f 284/498/445 294/499/445 285/500/445
f 281/501/446 293/502/446 285/503/446
f 297/504/447 289/505/447 292/506/447
f 286/507/448 299/508/448 291/509/448
f 299/508/449 282/510/449 295/511/449
f 280/512/450 297/504/450 298/513/450
f 300/514/451 299/508/451 289/505/451
f 299/508/452 295/511/452 291/509/452
f 297/504/453 300/514/453 289/505/453
f 292/506/454 294/515/454 288/516/454
f 300/517/455 283/518/455 299/519/455
f 282/520/456 283/521/456 280/522/456
f 285/500/457 294/499/457 281/523/457
f 295/511/458 298/524/458 293/502/458
f 287/525/459 296/526/459 288/527/459
f 286/507/460 281/501/460 294/515/460
f 288/527/461 284/528/461 287/525/461
f 289/505/462 286/507/462 292/506/462
f 298/524/463 296/526/463 287/525/463
f 286/507/464 294/515/464 292/506/464
f 287/525/465 293/502/465 298/524/465
f 288/516/466 294/515/466 284/529/466
f 297/504/467 296/530/467 298/513/467
f 299/508/468 286/507/468 289/505/468
f 282/510/469 280/531/469 298/524/469
f 282/510/470 299/508/470 283/532/470
f 293/502/471 287/525/471 284/528/471 285/503/471
f 292/506/472 288/516/472 296/530/472 297/504/472
f 295/511/473 282/510/473 298/524/473
f 280/512/474 283/533/474 300/514/474 297/504/474
f 290/534/475 286/507/475 291/509/475
f 290/534/476 291/509/476 293/502/476
f 291/509/477 295/511/477 293/502/477
f 290/534/478 281/501/478 286/507/478
f 293/502/479 281/501/479 290/534/479
