# Blender v2.79 (sub 0) OBJ File: 'Cottage2.blend'
# www.blender.org
mtllib Door2.mtl
o Circle.010_Circle.000
v -0.016855 1.568791 2.336525
v 0.021392 -1.792732 2.027343
v -0.051491 1.603947 2.115032
v 0.054773 1.549249 2.249823
v 0.030616 1.584336 2.081135
v -0.016350 -1.786441 2.318432
v 0.032764 -1.763122 2.150107
v -0.014309 -0.189057 2.044711
v 0.031734 -0.382305 2.281149
v -0.037129 -0.576262 2.274779
v -0.025719 0.581278 2.078529
v 0.025808 -0.955988 2.152290
v 0.021470 -0.394524 2.091662
v -0.051311 -0.272122 2.096710
v 0.053727 -0.894779 2.237305
v -0.053428 -1.744819 2.081389
v 0.041797 0.222926 2.111991
v -0.001497 0.138456 2.328462
v -0.057896 0.441343 2.286032
v 0.035423 0.950163 2.242084
v -0.023516 1.494238 2.054110
v 0.027950 1.513262 2.050664
v 0.009747 1.556855 1.795688
v -0.029135 -1.802216 1.528504
v -0.054775 0.700796 1.877498
v 0.042251 -1.746019 1.918216
v 0.019912 -1.727814 1.997084
v -0.054205 -1.766569 1.977363
v -0.055174 1.545329 1.929163
v 0.004402 1.605029 1.772256
v 0.043321 1.552473 1.729984
v 0.062499 1.572280 1.906832
v 0.043323 -0.852985 1.965629
v 0.046020 1.593519 1.575463
v -0.060907 1.539647 1.710257
v -0.035826 1.574805 1.540658
v 0.053968 -1.798693 1.738743
v -0.034647 -1.772728 1.631837
v 0.010387 -0.221387 1.505694
v 0.033527 -0.638767 1.737181
v -0.033021 -0.800540 1.761866
v 0.058097 0.121332 1.989074
v -0.040853 0.959615 1.701727
v 0.021557 0.571961 1.541859
v -0.024422 -1.795966 1.834207
v -0.030825 -0.973734 1.610299
v -0.027929 -0.416543 1.552378
v 0.046943 -0.285362 1.559418
v -0.053419 -0.562074 1.726575
v 0.049067 -1.756928 1.575723
v -0.047160 0.220228 1.568975
v -0.004274 0.126464 1.787434
v 0.051475 0.416296 1.745515
v 0.020430 1.486022 1.514251
v 0.020763 -0.854867 1.736274
v 0.022521 0.619296 1.780761
v 0.014604 -1.786150 1.810505
v -0.023846 -1.255618 2.055329
v -0.022544 1.591865 2.052278
v 0.018399 0.186204 2.039761
v -0.024464 0.795947 2.022871
v -0.033147 -1.723396 1.510312
v 0.011040 -1.767791 1.253823
v -0.027179 1.592100 0.977563
v 0.048262 -0.904237 1.339916
v -0.047810 1.535906 1.377621
v -0.026359 1.518434 1.455446
v 0.048532 1.558269 1.435693
v 0.050168 -1.755166 1.387201
v -0.008441 -1.814171 1.230710
v -0.047766 -1.760054 1.189866
v -0.066386 -1.782917 1.367269
v -0.048212 0.640535 1.425462
v 0.045603 -1.804389 1.035293
v -0.060843 -1.750352 1.173889
v -0.034913 -1.785030 0.999228
v 0.011216 1.585389 1.265893
v -0.037543 1.566012 1.104983
v 0.008713 -0.009818 0.964343
v -0.035776 0.180606 1.199229
v 0.033109 0.390588 1.192432
v 0.027710 0.584686 1.219424
v -0.063425 -0.338933 1.446747
v 0.021157 -0.777057 0.998879
v -0.029216 0.758010 1.068714
v -0.026438 0.185319 1.012459
v 0.046665 0.078441 1.012555
v -0.058494 0.676415 1.153843
v 0.049556 1.544358 1.038226
v -0.045643 -0.414868 1.031057
v -0.004399 -0.336596 1.246389
v 0.052073 -0.640306 1.203395
v -0.040404 -1.181149 1.159562
v 0.018931 -1.694123 0.971972
v -0.024557 0.645160 1.194664
v -0.027888 -0.817376 1.237767
v -0.018432 1.577492 1.273634
v 0.018528 1.063352 1.515179
v 0.017364 -1.805503 1.512455
v -0.022692 -0.375474 1.494753
v 0.019777 -1.003887 1.481317
v 0.027781 1.513996 0.969282
v -0.015883 1.568436 0.713274
v 0.023003 -1.791723 0.442869
v -0.053898 0.683839 0.795821
v 0.032730 -1.719283 0.960806
v -0.060282 -1.766966 0.937668
v -0.055880 1.546099 0.846165
v 0.004163 1.604426 0.691413
v 0.043258 1.553389 0.648442
v 0.061670 1.572400 0.825881
v 0.026274 -1.168150 0.964271
v 0.056391 1.549827 0.632892
v 0.003289 1.590009 0.477650
v -0.016510 -1.786091 0.728383
v 0.032594 -1.765055 0.555205
v -0.013447 -0.192260 0.422475
v 0.029872 -0.382955 0.657013
v -0.037384 -0.591540 0.655439
v -0.034039 -0.802233 0.685321
v 0.059434 0.142172 0.908297
v -0.041316 -0.872275 0.976112
v -0.026698 0.574555 0.458060
v 0.023527 -0.959453 0.528846
v 0.021647 -0.377889 0.469204
v -0.050999 -0.281630 0.472600
v 0.052377 -0.903781 0.616619
v -0.054702 -1.744819 0.497696
v 0.043058 0.234744 0.489020
v -0.000638 0.137955 0.706958
v -0.058003 0.435634 0.666898
v 0.035181 0.970066 0.617483
v 0.014964 1.565412 0.430516
v -0.040037 1.496399 0.454863
v 0.019940 -0.855417 0.654216
v 0.023329 0.600516 0.699039
v 0.050577 -1.812323 0.758488
v -0.029276 -1.776618 0.735121
v 0.045775 -1.009654 0.862721
v -0.022497 1.595636 0.972118
v 0.018055 0.185677 0.958102
v -0.023904 0.807761 0.941440
v 0.028867 1.512574 0.419543
v -0.016855 1.568791 0.163211
v 0.021392 -1.792732 -0.145971
v -0.058136 1.544383 0.288736
v 0.041659 -1.750857 0.283338
v 0.020110 -1.729923 0.365721
v -0.053976 -1.767215 0.341383
v 0.002542 1.602582 0.140488
v 0.043779 1.549689 0.097276
v 0.061334 1.573409 0.277917
v 0.043254 -0.854233 0.333761
v -0.051491 1.603947 -0.058282
v 0.054773 1.549249 0.076509
v 0.030616 1.584336 -0.092179
v -0.016350 -1.786441 0.145118
v 0.032763 -1.763122 -0.023207
v -0.014309 -0.189057 -0.128603
v 0.031734 -0.382305 0.107835
v -0.037129 -0.576262 0.101464
v 0.059389 0.129355 0.355900
v -0.058293 -0.603506 0.208169
v -0.025720 0.581278 -0.094786
v 0.025808 -0.955988 -0.021024
v 0.021470 -0.394524 -0.081653
v -0.051312 -0.272122 -0.076604
v 0.053727 -0.894779 0.063991
v -0.053428 -1.744819 -0.091925
v 0.041797 0.222926 -0.061323
v -0.001497 0.138456 0.155148
v -0.057896 0.441343 0.112718
v 0.035422 0.950163 0.068770
v -0.023516 1.494238 -0.119204
v 0.009534 -0.771977 0.106060
v 0.023723 0.584047 0.147437
v 0.040976 -1.803062 0.195097
v -0.026250 -1.777570 0.167425
v -0.024282 -1.257523 0.422475
v -0.022762 1.596444 0.419713
v 0.018673 0.186456 0.406648
v -0.024125 0.799951 0.390690
v -0.111996 -1.579347 -0.054572
v -0.005755 -1.439660 0.527748
v -0.130362 -1.472506 2.281457
v -0.101673 -1.536126 2.268409
v -0.006486 -1.520217 2.296186
v -0.005243 -1.481336 -0.077555
v -0.081754 -1.354765 -0.120344
v -0.131737 -1.320666 -0.082675
v -0.156366 -1.463323 -0.096872
v -0.131738 -1.510752 1.641392
v -0.033693 -1.346384 1.603802
v -0.150712 -1.529664 0.943068
v -0.102766 -1.325740 1.642741
v -0.105023 -1.361626 0.586162
v -0.094856 -1.385619 2.310220
v -0.045476 -1.583110 1.929971
v -0.047148 -1.580649 -0.110909
v -0.099730 -1.570552 0.896572
v -0.044682 -1.556927 0.459550
v -0.053229 1.194020 2.273709
v -0.164965 1.299537 2.296508
v -0.036801 1.303892 -0.065295
v -0.064475 1.237436 -0.050291
v -0.159622 1.257069 -0.077019
v -0.087038 1.419123 2.338221
v -0.034079 1.453981 2.300310
v -0.011533 1.308264 2.317311
v -0.034752 1.263218 0.577344
v -0.014031 1.245358 1.282312
v -0.165165 1.364528 0.757048
v -0.078058 1.446895 0.636300
v -0.059835 1.413518 1.608205
v -0.037678 1.375072 -0.102711
v -0.124014 1.397395 -0.084441
v -0.121487 1.191655 0.288293
v -0.119534 1.193883 2.333821
v -0.066321 1.204422 1.323238
v -0.121285 1.217294 1.762950
v -0.070126 1.236449 2.269597
v -0.035163 -1.412565 -0.081271
v -0.005142 1.271065 2.202095
v -0.052888 1.401756 2.120752
v -0.070690 -1.586226 0.119555
v -0.026539 -1.460385 0.013493
v -0.067935 -0.058451 0.934776
v -0.028986 -0.364911 0.973949
v -0.089458 -0.538855 0.838523
v -0.079850 0.562396 1.453220
v -0.034691 -0.768307 0.514134
v -0.036381 -0.243322 0.847496
v -0.101699 -0.164718 0.911837
v -0.008751 -0.776458 0.610613
v -0.105029 -1.407484 -0.013195
v -0.017131 0.258074 1.255748
v -0.056419 0.040739 1.343936
v -0.107998 0.315412 1.507987
v -0.024213 0.794482 1.818058
v -0.042391 1.410576 2.072356
v -0.091843 1.337487 2.044724
v 0.052215 -1.579347 2.023446
v -0.046156 -1.439660 1.439909
v 0.095990 -1.472506 -0.044652
v 0.067127 -1.536126 -0.031946
v -0.027677 -1.520217 -0.060853
v -0.054840 -1.481336 2.045158
v 0.021087 -1.354765 2.088853
v 0.071575 -1.320666 2.051782
v 0.096011 -1.463323 2.066270
v 0.094853 -1.510752 0.327853
v -0.003692 -1.346384 0.364274
v 0.104397 -1.529664 1.026347
v 0.065901 -1.325740 0.326160
v 0.053894 -1.361626 1.382681
v 0.060874 -1.385619 -0.073835
v 0.012493 -1.583110 0.038271
v -0.013388 -1.580649 2.079007
v 0.052792 -1.570552 1.072232
v -0.008152 -1.556927 1.508565
v 0.023229 1.194020 0.035284
v 0.135264 1.299537 0.013816
v -0.024775 1.303892 2.373904
v 0.003099 1.237436 2.359231
v 0.097878 1.257069 2.387088
v 0.057907 1.419123 -0.028821
v 0.004440 1.453981 0.008457
v -0.017875 1.308264 -0.008811
v -0.018148 1.263218 1.731293
v -0.029349 1.245358 1.026135
v 0.114681 1.364528 1.553154
v 0.025951 1.446895 1.672857
v 0.020851 1.413518 0.700813
v -0.024404 1.375072 2.411328
v 0.062172 1.397395 2.394086
v 0.064678 1.191655 2.021352
v 0.090342 1.193883 -0.024035
v 0.023489 1.204422 0.985834
v 0.084385 1.217294 0.546811
v 0.097499 1.236449 0.003499
v 0.030800 -1.412565 2.353762
v 0.031609 1.271065 0.070223
v 0.078253 1.401756 0.152127
v 0.069036 -1.586226 2.153376
v 0.023456 -1.460385 2.258904
v 0.077287 -0.058451 1.338187
v 0.038870 -0.364911 1.298554
v 0.097509 -0.538855 1.434688
v 0.096201 0.562396 0.819927
v 0.038367 -0.768307 1.758399
v 0.044557 -0.243322 1.425085
v 0.110739 -0.164718 1.361526
v 0.013731 -0.776458 1.661620
v 0.101580 -1.407484 2.286522
v 0.030820 0.258074 1.016636
v 0.071296 0.040739 0.928923
v 0.125085 0.315412 0.765498
v 0.045493 0.794482 0.454456
v 0.067103 1.410576 0.200394
v 0.116178 1.337487 0.228612
vt 0.224355 0.823705
vt 0.257851 0.883823
vt 0.282564 0.835870
vt 0.330891 0.828055
vt 0.348739 0.885854
vt 0.369873 0.837451
vt 0.969459 0.949819
vt 0.958082 0.951444
vt 0.969386 0.951267
vt 0.941127 0.946973
vt 0.939943 0.948649
vt 0.950630 0.947775
vt 0.949427 0.949690
vt 0.926466 0.950153
vt 0.951758 0.950387
vt 0.926637 0.951813
vt 0.943287 0.950880
vt 0.926805 0.945596
vt 0.937303 0.945613
vt 0.927108 0.948693
vt 0.969212 0.948431
vt 0.953378 0.947524
vt 0.291577 0.866775
vt 0.224899 0.861543
vt 0.382581 0.873343
vt 0.935564 0.952034
vt 0.951546 0.952379
vt 0.944140 0.952791
vt 0.953762 0.953138
vt 0.969533 0.952782
vt 0.944225 0.946100
vt 0.769126 0.950868
vt 0.758762 0.950676
vt 0.768856 0.952831
vt 0.757229 0.950631
vt 0.768662 0.950196
vt 0.223815 0.823765
vt 0.282564 0.835870
vt 0.257851 0.883823
vt 0.313550 0.857063
vt 0.370218 0.839308
vt 0.348472 0.885880
vt 0.767134 0.857764
vt 0.767031 0.859033
vt 0.751418 0.859929
vt 0.767259 0.852935
vt 0.767260 0.854391
vt 0.751942 0.855335
vt 0.738992 0.854791
vt 0.748329 0.855607
vt 0.737637 0.856466
vt 0.747365 0.857506
vt 0.749575 0.858233
vt 0.724128 0.857979
vt 0.740562 0.948112
vt 0.751866 0.948159
vt 0.752926 0.947228
vt 0.729779 0.949958
vt 0.740476 0.950080
vt 0.730025 0.948364
vt 0.741197 0.951384
vt 0.740880 0.858648
vt 0.724299 0.859639
vt 0.724472 0.853405
vt 0.734965 0.853439
vt 0.724754 0.856527
vt 0.766870 0.856250
vt 0.385062 0.958109
vt 0.366424 0.934175
vt 0.352783 0.985885
vt 0.329010 0.934278
vt 0.251806 0.916322
vt 0.236126 0.931639
vt 0.283642 0.952630
vt 0.260635 0.994699
vt 0.290966 0.981298
vt 0.226219 0.976632
vt 0.291518 0.866900
vt 0.224897 0.861538
vt 0.335873 0.819722
vt 0.382907 0.869819
vt 0.732210 0.859797
vt 0.752299 0.861005
vt 0.741803 0.860618
vt 0.759126 0.947199
vt 0.768641 0.947527
vt 0.759981 0.954104
vt 0.862127 0.956768
vt 0.851700 0.956562
vt 0.861855 0.958737
vt 0.850102 0.956524
vt 0.861660 0.956104
vt 0.224026 0.823742
vt 0.257851 0.883823
vt 0.282564 0.835870
vt 0.330119 0.829347
vt 0.348743 0.885854
vt 0.369806 0.837094
vt 0.572665 0.850696
vt 0.560936 0.852327
vt 0.572595 0.852160
vt 0.544332 0.847854
vt 0.543225 0.849509
vt 0.553938 0.848673
vt 0.552653 0.850571
vt 0.529677 0.851034
vt 0.554868 0.851256
vt 0.833504 0.954026
vt 0.844966 0.954058
vt 0.845671 0.953137
vt 0.822778 0.955863
vt 0.833475 0.955987
vt 0.823035 0.954273
vt 0.834252 0.957271
vt 0.529843 0.852714
vt 0.546509 0.851774
vt 0.530014 0.846467
vt 0.540509 0.846494
vt 0.530304 0.849576
vt 0.572416 0.849312
vt 0.556794 0.848439
vt 0.385062 0.958109
vt 0.366424 0.934175
vt 0.352846 0.985895
vt 0.328846 0.934508
vt 0.251792 0.916317
vt 0.236322 0.931507
vt 0.283642 0.952630
vt 0.260635 0.994699
vt 0.290966 0.981298
vt 0.226221 0.976603
vt 0.291596 0.866735
vt 0.224652 0.861088
vt 0.382569 0.873473
vt 0.538245 0.852904
vt 0.554750 0.853260
vt 0.547346 0.853673
vt 0.557211 0.854030
vt 0.572739 0.853663
vt 0.852125 0.953106
vt 0.861640 0.953435
vt 0.852978 0.960002
vt 0.335625 0.983152
vt 0.368166 0.988336
vt 0.367286 0.935282
vt 0.769127 0.950864
vt 0.758528 0.950709
vt 0.768857 0.952841
vt 0.757021 0.950627
vt 0.768662 0.950196
vt 0.330595 0.828550
vt 0.348760 0.885852
vt 0.369970 0.837973
vt 0.371081 0.953128
vt 0.359841 0.954712
vt 0.371000 0.954500
vt 0.342802 0.950220
vt 0.341706 0.951858
vt 0.352383 0.951048
vt 0.351080 0.952939
vt 0.328188 0.952538
vt 0.353164 0.953610
vt 0.739021 0.948192
vt 0.752109 0.948138
vt 0.752887 0.947228
vt 0.729722 0.949374
vt 0.740476 0.950080
vt 0.741181 0.951390
vt 0.328256 0.955064
vt 0.344817 0.954055
vt 0.328427 0.948835
vt 0.338921 0.948862
vt 0.328801 0.951848
vt 0.370815 0.951681
vt 0.355307 0.950812
vt 0.329804 0.933160
vt 0.251811 0.916324
vt 0.236228 0.931570
vt 0.283642 0.952630
vt 0.260635 0.994699
vt 0.290966 0.981298
vt 0.226203 0.976824
vt 0.292966 0.863825
vt 0.265585 0.868815
vt 0.283688 0.883531
vt 0.224877 0.861502
vt 0.224011 0.823743
vt 0.382745 0.871569
vt 0.336801 0.955274
vt 0.353203 0.955630
vt 0.345759 0.956041
vt 0.355727 0.956404
vt 0.371152 0.956032
vt 0.740526 0.953497
vt 0.736749 0.954835
vt 0.752710 0.954829
vt 0.729843 0.950610
vt 0.759126 0.947199
vt 0.768641 0.947527
vt 0.760113 0.954140
vt 0.969597 0.945434
vt 0.926787 0.953096
vt 0.767209 0.860609
vt 0.735853 0.954108
vt 0.752752 0.954829
vt 0.729843 0.952768
vt 0.756554 0.858641
vt 0.768494 0.955658
vt 0.769007 0.954705
vt 0.741887 0.853926
vt 0.724449 0.860922
vt 0.739517 0.955294
vt 0.768931 0.948453
vt 0.828647 0.960027
vt 0.845481 0.960738
vt 0.822843 0.958666
vt 0.861493 0.961565
vt 0.862006 0.960612
vt 0.572803 0.846366
vt 0.547431 0.846981
vt 0.529993 0.853977
vt 0.832516 0.961201
vt 0.861933 0.954361
vt 0.729813 0.952813
vt 0.768494 0.955658
vt 0.769007 0.954705
vt 0.371215 0.948703
vt 0.345844 0.949350
vt 0.328406 0.956346
vt 0.328067 0.953403
vt 0.736648 0.947326
vt 0.730067 0.947249
vt 0.730035 0.954210
vt 0.768931 0.948453
vt 0.926340 0.947683
vt 0.958876 0.950663
vt 0.724003 0.855509
vt 0.734854 0.947290
vt 0.730066 0.947195
vt 0.730035 0.954210
vt 0.529547 0.848564
vt 0.562088 0.851571
vt 0.827853 0.953197
vt 0.823065 0.953102
vt 0.823034 0.960117
vt 0.327959 0.950933
vt 0.360503 0.953964
vt 0.335625 0.983152
vt 0.368166 0.988335
vt 0.366424 0.934175
vt 0.562965 0.853301
vt 0.575180 0.853662
vt 0.574717 0.852981
vt 0.224355 0.823705
vt 0.257851 0.883823
vt 0.282564 0.835870
vt 0.330891 0.828055
vt 0.348739 0.885854
vt 0.369873 0.837451
vt 0.969459 0.949819
vt 0.958082 0.951444
vt 0.969386 0.951267
vt 0.941127 0.946973
vt 0.939943 0.948649
vt 0.950630 0.947775
vt 0.949427 0.949690
vt 0.926466 0.950153
vt 0.951758 0.950387
vt 0.546565 0.850902
vt 0.558001 0.850949
vt 0.558985 0.850025
vt 0.535787 0.852172
vt 0.547502 0.853819
vt 0.536047 0.851144
vt 0.926637 0.951813
vt 0.943287 0.950880
vt 0.926805 0.945596
vt 0.937303 0.945613
vt 0.927108 0.948693
vt 0.969212 0.948431
vt 0.953378 0.947524
vt 0.385062 0.958109
vt 0.328692 0.934726
vt 0.252157 0.916445
vt 0.236188 0.931597
vt 0.283642 0.952630
vt 0.260635 0.994699
vt 0.290966 0.981298
vt 0.226215 0.976677
vt 0.291577 0.866775
vt 0.224899 0.861543
vt 0.382581 0.873343
vt 0.935564 0.952034
vt 0.951546 0.952379
vt 0.944140 0.952791
vt 0.953762 0.953138
vt 0.969533 0.952782
vt 0.565179 0.849996
vt 0.574694 0.850324
vt 0.944225 0.946100
vt 0.549481 0.854768
vt 0.574877 0.855621
vt 0.541873 0.856912
vt 0.558810 0.857625
vt 0.566068 0.856925
vt 0.535898 0.855546
vt 0.535896 0.853406
vt 0.574547 0.858454
vt 0.575059 0.857501
vt 0.969597 0.945434
vt 0.926787 0.953096
vt 0.545570 0.858091
vt 0.574978 0.851251
vt 0.926340 0.947683
vt 0.958876 0.950663
vt 0.540907 0.850087
vt 0.536119 0.849992
vt 0.536088 0.857006
vt 0.769126 0.950868
vt 0.758762 0.950676
vt 0.768856 0.952831
vt 0.757229 0.950631
vt 0.768662 0.950196
vt 0.740562 0.948112
vt 0.751866 0.948159
vt 0.752926 0.947228
vt 0.729779 0.949958
vt 0.740476 0.950080
vt 0.730025 0.948364
vt 0.741197 0.951384
vt 0.385062 0.958109
vt 0.366424 0.934175
vt 0.352783 0.985885
vt 0.329010 0.934278
vt 0.251806 0.916322
vt 0.236126 0.931639
vt 0.283642 0.952630
vt 0.260635 0.994699
vt 0.290966 0.981298
vt 0.226219 0.976632
vt 0.759126 0.947199
vt 0.768641 0.947527
vt 0.759981 0.954104
vt 0.735853 0.954108
vt 0.752752 0.954829
vt 0.729843 0.952768
vt 0.768494 0.955658
vt 0.769007 0.954705
vt 0.739517 0.955294
vt 0.768931 0.948453
vt 0.734854 0.947290
vt 0.730066 0.947195
vt 0.730035 0.954210
vt 0.335625 0.983152
vt 0.368166 0.988335
vt 0.366424 0.934175
vt 0.562965 0.853301
vt 0.575180 0.853662
vt 0.574717 0.852981
vt 0.546565 0.850902
vt 0.558001 0.850949
vt 0.558985 0.850025
vt 0.535787 0.852172
vt 0.547502 0.853819
vt 0.536047 0.851144
vt 0.385062 0.958109
vt 0.328692 0.934726
vt 0.252157 0.916445
vt 0.236188 0.931597
vt 0.283642 0.952630
vt 0.260635 0.994699
vt 0.290966 0.981298
vt 0.226215 0.976677
vt 0.565179 0.849996
vt 0.574694 0.850324
vt 0.549481 0.854768
vt 0.574877 0.855621
vt 0.541873 0.856912
vt 0.558810 0.857625
vt 0.566068 0.856925
vt 0.535898 0.855546
vt 0.535896 0.853406
vt 0.574547 0.858454
vt 0.575059 0.857501
vt 0.545570 0.858091
vt 0.574978 0.851251
vt 0.540907 0.850087
vt 0.536119 0.849992
vt 0.536088 0.857006
vt 0.340833 0.813137
vt 0.346038 0.812040
vt 0.344788 0.813963
vt 0.333347 0.812040
vt 0.328994 0.833617
vt 0.330862 0.812647
vt 0.338464 0.867128
vt 0.333453 0.870655
vt 0.334521 0.849146
vt 0.333136 0.851325
vt 0.331749 0.895940
vt 0.331930 0.846714
vt 0.326983 0.895445
vt 0.330996 0.862065
vt 0.338735 0.896154
vt 0.340824 0.881047
vt 0.333081 0.894229
vt 0.335341 0.813222
vt 0.338592 0.841601
vt 0.343395 0.820329
vt 0.340833 0.820329
vt 0.341518 0.819290
vt 0.342357 0.815822
vt 0.340833 0.819281
vt 0.340833 0.813972
vt 0.347393 0.813963
vt 0.327607 0.880700
vt 0.327614 0.846545
vt 0.326031 0.860499
vt 0.326282 0.841003
vt 0.326970 0.812040
vt 0.340479 0.812249
vt 0.339603 0.859384
vt 0.324573 0.895812
vt 0.330699 0.896689
vt 0.333541 0.896707
vt 0.331071 0.832288
vt 0.327360 0.962561
vt 0.341968 0.963553
vt 0.328580 0.965481
vt 0.343252 0.960738
vt 0.328065 0.961251
vt 0.367327 0.956958
vt 0.351446 0.956951
vt 0.350417 0.955545
vt 0.382453 0.959729
vt 0.366860 0.960810
vt 0.381705 0.957513
vt 0.366099 0.962324
vt 0.241623 0.855440
vt 0.241354 0.853976
vt 0.243346 0.856580
vt 0.243346 0.853192
vt 0.236501 0.858955
vt 0.235197 0.858146
vt 0.236958 0.855955
vt 0.235006 0.853192
vt 0.236882 0.853192
vt 0.233782 0.855227
vt 0.340493 0.954513
vt 0.328738 0.955751
vt 0.340552 0.966186
vt 0.373776 0.966598
vt 0.350414 0.967477
vt 0.382703 0.963634
vt 0.329432 0.968924
vt 0.328036 0.967737
vt 0.367240 0.968924
vt 0.327783 0.958353
vt 0.373811 0.954622
vt 0.381425 0.956062
vt 0.382473 0.966013
vt 0.241022 0.856344
vt 0.239087 0.856344
vt 0.239189 0.853192
vt 0.371222 0.865486
vt 0.388053 0.863826
vt 0.387321 0.865181
vt 0.347894 0.870720
vt 0.363764 0.869649
vt 0.364711 0.871044
vt 0.332872 0.869560
vt 0.349468 0.866784
vt 0.333898 0.871066
vt 0.238752 0.854670
vt 0.241331 0.853336
vt 0.233367 0.858987
vt 0.232008 0.858164
vt 0.233760 0.855915
vt 0.231804 0.853224
vt 0.233760 0.853192
vt 0.230503 0.855414
vt 0.374729 0.872013
vt 0.386657 0.870628
vt 0.351853 0.864144
vt 0.386957 0.861120
vt 0.341201 0.861598
vt 0.364213 0.859139
vt 0.374085 0.859742
vt 0.332872 0.864274
vt 0.333120 0.867498
vt 0.386154 0.857168
vt 0.387715 0.858531
vt 0.347501 0.858868
vt 0.387631 0.868045
vt 0.341760 0.873383
vt 0.334302 0.872493
vt 0.333091 0.862051
vt 0.237733 0.853192
vt 0.238730 0.857925
vt 0.236981 0.856788
vt 0.541160 0.915780
vt 0.537200 0.935405
vt 0.538899 0.916332
vt 0.545814 0.965885
vt 0.541256 0.969093
vt 0.542227 0.949529
vt 0.540967 0.951511
vt 0.539706 0.992093
vt 0.539871 0.947317
vt 0.535371 0.991642
vt 0.539021 0.961278
vt 0.546060 0.992287
vt 0.547961 0.978545
vt 0.540918 0.990536
vt 0.542973 0.916855
vt 0.545930 0.942666
vt 0.244777 0.853192
vt 0.247107 0.853192
vt 0.246485 0.854137
vt 0.244754 0.854874
vt 0.243369 0.858020
vt 0.243369 0.853192
vt 0.236981 0.859158
vt 0.535939 0.978230
vt 0.535945 0.947164
vt 0.534505 0.959855
vt 0.534733 0.942122
vt 0.535359 0.915780
vt 0.547646 0.915970
vt 0.546850 0.958841
vt 0.533179 0.991976
vt 0.538751 0.992774
vt 0.541336 0.992790
vt 0.539089 0.934196
vn 0.2733 0.9557 0.1090
vn -0.0813 -0.9838 -0.1600
vn 0.9960 -0.0151 -0.0886
vn -0.9904 0.0268 -0.1355
vn 0.7805 -0.0069 -0.6251
vn 0.9900 0.0049 -0.1407
vn 0.6647 -0.0576 0.7449
vn 0.8038 -0.0069 -0.5948
vn -0.9880 -0.0017 -0.1544
vn -0.9968 0.0006 0.0804
vn -0.2598 0.4173 -0.8708
vn 0.4047 0.9051 0.1303
vn -0.3877 -0.8873 0.2499
vn 0.9999 0.0099 -0.0066
vn 0.1367 -0.0810 0.9873
vn -0.5874 -0.0043 -0.8093
vn -0.1820 0.0323 0.9828
vn -0.9685 -0.0225 0.2481
vn -0.9373 0.0208 -0.3479
vn -0.7475 -0.0195 -0.6640
vn -0.2677 0.9566 0.1152
vn 0.0162 -0.9685 -0.2486
vn -0.9987 -0.0116 -0.0500
vn 0.7730 0.0145 0.6343
vn 0.9918 0.0268 -0.1252
vn -0.7587 -0.0068 -0.6513
vn 0.7699 -0.0270 0.6376
vn 0.9705 -0.0255 -0.2396
vn -0.3737 0.0658 -0.9252
vn -0.4826 -0.0664 -0.8733
vn -0.9894 0.0052 -0.1452
vn -0.6816 -0.0570 0.7295
vn -0.7728 -0.0068 -0.6346
vn 0.9890 -0.0032 -0.1478
vn 0.9968 0.0023 0.0799
vn 0.2435 -0.9277 0.2831
vn 0.3906 -0.8817 0.2646
vn 0.7309 0.6649 -0.1537
vn 0.7787 0.4922 0.3890
vn -0.1591 0.9413 0.2977
vn -0.2644 0.9232 -0.2789
vn 0.2693 0.4273 -0.8631
vn -0.3832 0.9141 0.1328
vn -0.1614 -0.9813 -0.1045
vn 0.3526 -0.8947 0.2741
vn -1.0000 0.0083 0.0014
vn -0.1844 -0.0735 0.9801
vn 0.5275 -0.0254 -0.8492
vn 0.0579 -0.0429 0.9974
vn -0.9771 -0.0135 0.2125
vn 0.9384 -0.0171 -0.3450
vn 0.7328 0.0191 -0.6802
vn -0.2807 -0.9529 0.1152
vn 0.1243 0.9800 -0.1557
vn -0.9968 0.0192 -0.0771
vn 0.9909 -0.0274 -0.1314
vn -0.7927 0.0075 -0.6095
vn -0.7524 0.0260 0.6582
vn -0.9649 0.0285 -0.2612
vn 0.3594 -0.0703 -0.9305
vn 0.4923 0.0703 -0.8676
vn -0.9893 -0.0044 -0.1460
vn -0.6816 0.0574 0.7294
vn -0.8059 0.0074 -0.5920
vn 0.9886 0.0020 -0.1508
vn 0.9967 -0.0034 0.0810
vn -0.2874 0.9146 0.2845
vn -0.3964 0.8781 0.2680
vn -0.7361 -0.6572 -0.1620
vn -0.7914 -0.4769 0.3824
vn 0.1746 -0.9411 0.2895
vn 0.2690 -0.9160 -0.2977
vn 0.2828 -0.4253 -0.8597
vn -0.3665 -0.9215 0.1285
vn 0.3877 0.8964 0.2151
vn -0.9998 -0.0098 -0.0176
vn -0.1491 0.0808 0.9855
vn 0.6278 0.0205 -0.7781
vn 0.2611 -0.0545 0.9638
vn -0.0587 0.0445 0.9973
vn 0.9783 0.0137 0.2067
vn -0.4646 -0.8194 0.3358
vn -0.9345 0.0186 -0.3556
vn -0.7509 -0.0193 -0.6602
vn -0.1253 -0.9800 -0.1546
vn 0.9966 -0.0171 -0.0810
vn -0.9910 0.0259 -0.1313
vn 0.7806 -0.0098 -0.6250
vn 0.7535 -0.0349 0.6565
vn 0.9939 0.0200 -0.1083
vn -0.4533 0.0601 -0.8893
vn -0.5734 -0.1069 -0.8123
vn 0.9798 0.0119 -0.1996
vn 0.6961 -0.0552 0.7158
vn -0.3954 -0.0089 -0.9185
vn 0.8059 -0.0090 -0.5920
vn -0.9873 -0.0148 -0.1579
vn -0.9967 0.0039 0.0808
vn 0.4319 -0.8953 0.1088
vn 0.7214 0.6767 -0.1474
vn 0.7931 0.4752 0.3810
vn -0.1603 0.9426 0.2930
vn -0.2567 0.9207 -0.2940
vn -0.7731 0.4633 -0.4333
vn 0.3650 0.9240 0.1143
vn -0.3689 -0.8968 0.2444
vn 0.9999 0.0092 0.0088
vn 0.2251 -0.0799 0.9710
vn -0.5859 -0.0237 -0.8101
vn -0.1975 0.0563 0.9787
vn 0.1965 0.0057 0.9805
vn 0.2607 -0.0480 -0.9642
vn 0.0522 -0.0432 0.9977
vn -0.9768 -0.0147 0.2137
vn -0.8241 0.0127 -0.5662
vn 0.4790 -0.0246 -0.8774
vn 0.8747 0.0118 0.4846
vn -0.8201 0.0071 -0.5722
vn 0.9292 0.0083 0.3695
vn -0.9882 -0.0115 0.1526
vn -0.1429 0.1112 0.9835
vn -0.5027 0.0305 -0.8639
vn 0.7669 -0.0330 0.6410
vn -0.9986 -0.0193 0.0482
vn 0.8340 0.0134 -0.5516
vn -0.1673 0.0155 0.9858
vn -0.9252 -0.0632 -0.3741
vn -0.9793 0.0029 0.2023
vn -0.9668 -0.0371 0.2528
vn -0.4598 -0.0274 -0.8876
vn -0.8564 0.0155 0.5162
vn -0.0458 0.0857 0.9953
vn -0.5757 -0.0816 -0.8136
vn 0.8239 -0.0051 -0.5667
vn 0.8287 0.0736 0.5548
vn -0.0254 -0.0368 0.9990
vn 0.9995 0.0176 -0.0255
vn -0.9607 0.0253 -0.2763
vn 0.1730 0.1083 0.9789
vn 0.5483 0.0304 -0.8357
vn -0.7665 -0.0359 0.6412
vn 0.9942 0.0021 -0.1074
vn 0.8388 -0.0187 0.5441
vn -0.9999 -0.0151 0.0079
vn 0.9941 -0.0279 -0.1047
vn -0.9659 -0.0072 0.2587
vn -0.7892 -0.0198 -0.6139
vn -0.7728 0.0201 -0.6344
vn 0.7981 -0.0142 -0.6023
vn 0.0744 -0.0163 0.9971
vn 0.9250 0.0634 -0.3747
vn 0.9807 -0.0026 0.1957
vn -0.4871 0.0268 -0.8729
vn -0.8826 -0.0107 0.4700
vn 0.7772 0.0095 -0.6292
vn -0.7851 -0.0662 0.6158
vn 0.0206 0.0387 0.9990
vn -0.9259 -0.0079 0.3777
vn 0.9863 0.0079 0.1647
vn 0.1662 -0.1079 0.9802
vn 0.5278 -0.0297 -0.8489
vn -0.7381 0.0435 0.6733
vn -0.9928 -0.0013 -0.1200
vn -0.8374 0.0162 0.5464
vn 0.9999 0.0144 0.0077
vn -0.9945 0.0261 -0.1010
vn 0.9667 0.0070 0.2560
vn 0.8096 0.0199 -0.5866
vn 0.7935 -0.0197 -0.6083
vn -0.8113 0.0131 -0.5845
vn -0.9996 0.0220 -0.0197
vn -0.0787 0.0214 0.9967
vn -0.0118 -0.0427 0.9990
vn -0.9885 -0.0125 -0.1507
vn -0.9816 0.0141 0.1902
vn 0.8945 0.0095 0.4469
vn -0.7930 -0.0084 -0.6091
vn 0.7964 0.0698 0.6007
vn -0.0068 -0.0389 0.9992
vn 0.9148 0.0082 0.4038
vn -0.9868 -0.0073 0.1620
vn -0.1133 0.1110 0.9873
vn -0.7810 0.0155 -0.6244
vn 0.7377 -0.0449 0.6737
vn 0.7925 0.5987 -0.1161
vn 0.9925 0.0014 -0.1219
vn -0.9996 -0.0113 -0.0277
vn 0.9789 0.0102 0.2039
vn 0.9959 -0.0058 0.0905
vn -0.2371 -0.0089 0.9714
vn 0.9946 -0.0261 -0.1004
vn -0.9658 -0.0084 0.2593
vn -0.7897 -0.0197 -0.6132
vn -0.7724 0.0213 -0.6347
vn 0.9702 -0.0344 0.2400
vn -0.9997 0.0086 0.0213
vn 0.5846 -0.0826 -0.8071
vn 0.9549 -0.0246 -0.2959
vn 0.9574 -0.0220 -0.2878
vn 0.9805 0.0239 -0.1950
vn 0.9388 0.0460 -0.3414
vn 0.9679 -0.0184 0.2507
vn -0.9941 0.0439 0.0992
vn 0.9993 0.0098 0.0355
vn -0.9881 -0.0108 -0.1536
vn -0.9859 -0.0255 -0.1655
vn -0.9724 0.0210 -0.2324
vn 0.8901 -0.0074 0.4557
vn 0.9009 -0.0241 0.4333
vn 0.9850 -0.0018 -0.1725
vn 0.9191 -0.0365 0.3923
vn -0.1870 -0.1373 0.9727
vn -0.9258 0.0245 0.3773
vn 0.9713 0.0105 0.2376
vn 0.9793 -0.0144 -0.2017
vn 0.9686 0.0205 0.2478
vn 0.9938 -0.0439 0.1019
vn -0.9570 0.0416 0.2870
vn 0.9996 -0.0092 0.0256
vn -0.6444 0.0717 -0.7614
vn -0.9525 0.0252 -0.3034
vn -0.9563 0.0216 -0.2917
vn -0.9782 -0.0202 -0.2068
vn -0.9337 -0.0366 -0.3562
vn -0.8915 0.0067 0.4530
vn -0.9028 0.0234 0.4295
vn -0.9851 0.0019 -0.1718
vn 0.9283 -0.0255 0.3709
vn 0.1793 0.1454 0.9730
vn -0.9730 -0.0107 0.2306
vn -0.9805 0.0128 -0.1960
vn -0.9685 -0.0222 0.2479
vn 0.9517 -0.0429 0.3039
vn -0.9951 0.0651 0.0749
vn 0.6241 -0.0777 -0.7774
vn 0.9547 -0.0273 -0.2965
vn 0.9579 -0.0242 -0.2861
vn 0.9800 0.0198 -0.1978
vn 0.9429 0.0336 -0.3313
vn 0.9837 -0.0046 -0.1797
vn 0.9800 0.0069 0.1989
vn 0.9720 0.0120 0.2346
vn 0.9802 -0.0129 -0.1974
vn -0.4451 -0.8415 0.3063
vn -0.7354 -0.0199 -0.6774
vn 0.7646 -0.0270 0.6439
vn 0.9993 0.0284 -0.0245
vn 0.6646 -0.0576 0.7449
vn 0.8039 -0.0069 -0.5948
vn 0.7348 -0.5863 0.3412
vn 0.4147 -0.9020 0.1198
vn 0.7114 0.6846 -0.1590
vn 0.7854 0.4827 0.3874
vn -0.2018 0.9370 0.2852
vn -0.2508 0.9209 -0.2983
vn 0.0571 -0.0446 0.9974
vn -0.8159 0.0217 -0.5778
vn -0.1495 0.0153 0.9886
vn -0.9875 -0.0215 -0.1561
vn -0.8358 -0.0038 -0.5490
vn -0.9864 0.0026 0.1645
vn 0.8159 0.0718 0.5738
vn -0.9672 -0.0094 0.2537
vn -0.0556 -0.0363 0.9978
vn 0.9797 -0.0041 -0.2004
vn 0.8349 -0.0188 0.5501
vn 0.3571 -0.0695 -0.9315
vn 0.9953 -0.0255 -0.0934
vn -0.9646 -0.0080 0.2637
vn -0.9222 -0.0218 -0.3860
vn -0.7727 0.0274 -0.6341
vn -0.9751 0.0217 0.2209
vn 0.8935 -0.0072 0.4491
vn 0.9172 -0.0240 0.3977
vn 0.9847 -0.0026 -0.1741
vn -0.2456 -0.1383 0.9595
vn 0.9736 0.0110 0.2279
vn 0.9810 -0.0118 -0.1935
vn 0.8604 0.5085 -0.0343
vn 0.5771 0.8162 0.0269
vn -0.6039 -0.7962 0.0380
vn -0.9298 0.3655 0.0438
vn 0.2452 0.9664 -0.0774
vn 0.3269 0.9416 0.0806
vn -0.1400 -0.2591 0.9556
vn -0.2324 -0.2506 0.9398
vn -0.5151 0.1725 -0.8396
vn -0.5856 -0.4658 -0.6634
vn 0.0904 -0.2695 -0.9588
vn 0.1525 0.2562 -0.9545
vn -0.0364 -0.9982 0.0483
vn 0.9447 -0.3272 0.0233
vn 0.1060 -0.9942 -0.0176
vn 0.8364 0.5385 0.1023
vn 0.9499 -0.3124 -0.0051
vn -0.6802 -0.7250 -0.1083
vn 0.0160 -0.9990 0.0415
vn -0.9855 0.1694 -0.0036
vn -0.6953 -0.7182 0.0278
vn 0.9996 -0.0125 0.0270
vn -0.9850 0.1651 0.0495
vn 0.9198 -0.3922 0.0123
vn 0.6280 0.7777 0.0282
vn 0.6074 0.7939 -0.0283
vn 0.9846 -0.1564 -0.0780
vn -0.7751 -0.6317 0.0116
vn -0.7934 -0.6076 0.0380
vn -0.9632 0.2686 0.0032
vn 0.1184 -0.9807 0.1558
vn -0.9317 -0.3629 -0.0181
vn -0.9499 0.3115 0.0250
vn -0.2704 -0.2962 -0.9160
vn -0.5632 0.8259 -0.0273
vn 0.5975 -0.8010 -0.0379
vn 0.9980 0.0390 0.0507
vn 0.5277 -0.3901 -0.7545
vn 0.2469 -0.1136 -0.9624
vn 0.4939 0.1758 0.8516
vn 0.5945 -0.4668 0.6547
vn -0.1153 -0.2594 0.9589
vn -0.1445 0.2737 0.9509
vn 0.0359 -0.9981 -0.0503
vn -0.6632 0.7478 0.0317
vn -0.0946 -0.9954 0.0173
vn -0.9691 0.2439 -0.0379
vn -0.6911 0.7227 -0.0056
vn -0.9665 -0.2567 0.0046
vn 0.6625 -0.7417 0.1045
vn -0.9227 -0.3853 -0.0161
vn -0.0350 -0.9986 -0.0408
vn 0.9508 0.3096 -0.0072
vn 0.6897 -0.7235 -0.0278
vn 0.2333 0.9690 -0.0814
vn 0.9880 0.1476 -0.0454
vn -0.9168 -0.3990 -0.0136
vn -0.8316 0.5542 -0.0352
vn -0.6073 0.7935 0.0386
vn -0.9400 -0.3390 0.0374
vn 0.7808 -0.6247 -0.0113
vn 0.8223 -0.5677 -0.0386
vn 0.9626 0.2709 -0.0045
vn -0.1567 -0.9749 -0.1582
vn 0.9369 -0.3492 0.0190
vn 0.9539 0.2996 -0.0205
vn -0.1440 -0.6077 -0.7810
vn 0.9967 0.0370 -0.0720
vn -0.9918 0.0939 -0.0861
vn 0.7899 0.3668 -0.4915
vn 0.9812 0.1255 -0.1468
vn 0.7096 -0.4661 0.5284
vn -0.4059 0.5505 -0.7295
vn 0.8145 0.3472 -0.4648
vn -0.9880 0.0838 -0.1298
vn -0.9969 -0.0452 0.0644
vn -0.8134 0.5773 -0.0712
vn 0.4131 0.5852 0.6978
vn -0.4264 -0.8225 -0.3763
vn 0.9999 0.0006 0.0120
vn 0.2335 -0.6466 0.7262
vn -0.5974 0.4720 -0.6483
vn -0.2030 -0.5566 0.8056
vn -0.8205 0.3571 -0.4464
vn 0.8999 -0.2591 0.3508
vn -0.8020 0.3580 -0.4781
vn 0.9193 -0.2342 0.3164
vn -0.9876 -0.1003 0.1204
vn -0.1162 -0.5253 0.8430
vn -0.7911 0.3831 -0.4769
vn 0.7500 -0.4329 0.5000
vn 0.8390 0.4735 0.2683
vn 0.9330 -0.2361 0.2717
vn -0.9708 -0.1607 0.1781
vn 0.9555 -0.2072 0.2097
vn -0.9955 -0.0030 0.0948
vn 0.6340 0.4160 -0.6519
vn 0.9568 0.1580 -0.2439
vn 0.9600 0.1538 -0.2341
vn 0.9815 0.1294 -0.1408
vn 0.9470 0.2176 -0.2362
vn -0.8608 0.5085 0.0227
vn -0.5767 0.8162 -0.0347
vn 0.6043 -0.7962 -0.0298
vn 0.9326 0.3551 -0.0649
vn -0.2461 0.9664 0.0741
vn -0.3488 0.9275 -0.1345
vn 0.1514 -0.2592 -0.9539
vn 0.2436 -0.2506 -0.9369
vn 0.5047 0.1724 0.8459
vn 0.5773 -0.4655 0.6708
vn -0.1018 -0.2695 0.9576
vn -0.1639 0.2563 0.9526
vn 0.0370 -0.9982 -0.0478
vn -0.9443 -0.3271 -0.0361
vn -0.1062 -0.9942 0.0162
vn -0.8307 0.5301 -0.1699
vn -0.9499 -0.3124 -0.0078
vn 0.6788 -0.7249 0.1174
vn -0.0155 -0.9990 -0.0417
vn 0.9869 0.1602 0.0167
vn 0.6956 -0.7182 -0.0184
vn -0.9991 -0.0125 -0.0405
vn 0.9856 0.1652 -0.0362
vn -0.9195 -0.3922 -0.0248
vn -0.6276 0.7777 -0.0367
vn -0.6077 0.7939 0.0201
vn -0.9329 -0.3119 0.1802
vn 0.7915 -0.6109 -0.0179
vn 0.9762 -0.2159 -0.0192
vn 0.9617 0.2740 0.0071
vn 0.0246 -0.8396 -0.5427
vn 0.9313 -0.3629 0.0307
vn 0.9502 0.3115 -0.0122
vn 0.2594 -0.2961 0.9192
vn 0.5628 0.8259 0.0349
vn -0.5979 -0.8010 0.0298
vn -0.9972 0.0390 -0.0642
vn -0.5370 -0.3904 0.7478
vn -0.2584 -0.1136 0.9593
vn -0.4834 0.1757 -0.8576
vn -0.5863 -0.4666 -0.6623
vn 0.1267 -0.2594 -0.9574
vn 0.1558 0.2738 -0.9491
vn -0.0365 -0.9981 0.0498
vn 0.6635 0.7478 -0.0227
vn 0.0948 -0.9954 -0.0160
vn 0.9685 0.2439 0.0509
vn 0.6910 0.7227 0.0149
vn 0.9665 -0.2567 0.0085
vn -0.6611 -0.7416 -0.1134
vn 0.9224 -0.3853 0.0286
vn 0.0345 -0.9986 0.0413
vn -0.9508 0.3096 -0.0056
vn -0.6900 -0.7235 0.0185
vn -0.2343 0.9690 0.0783
vn -0.9885 0.1476 0.0321
vn 0.9166 -0.3990 0.0259
vn 0.8311 0.5542 0.0465
vn 0.6078 0.7935 -0.0304
vn 0.9405 -0.3390 -0.0247
vn -0.7808 -0.6247 0.0008
vn -0.8228 -0.5677 0.0274
vn -0.9626 0.2709 -0.0085
vn 0.1548 -0.9749 0.1603
vn -0.9365 -0.3492 -0.0316
vn -0.9540 0.2996 0.0076
vn 0.1347 -0.6076 0.7827
vn -0.9976 0.0370 0.0586
vn 0.9906 0.0939 0.0995
vn -0.7961 0.3671 0.4811
vn -0.9831 0.1255 0.1335
vn -0.7029 -0.4658 -0.5376
vn 0.3970 0.5502 0.7346
vn -0.8204 0.3474 0.4541
vn 0.9861 0.0838 0.1431
vn 0.9977 -0.0452 -0.0509
vn 0.8124 0.5772 0.0822
vn -0.4046 0.5849 -0.7030
vn 0.4218 -0.8223 0.3819
vn -0.9997 0.0006 -0.0255
vn -0.2248 -0.6464 -0.7291
vn 0.5893 0.4717 0.6559
vn 0.2126 -0.5568 -0.8030
vn 0.8146 0.3568 0.4572
vn -0.8952 -0.2590 -0.3628
vn 0.7958 0.3578 0.4886
vn -0.9150 -0.2341 -0.3287
vn 0.9892 -0.1004 -0.1071
vn 0.1262 -0.5254 -0.8415
vn 0.7849 0.3828 0.4872
vn -0.7436 -0.4327 -0.5098
vn -0.8354 0.4733 -0.2795
vn -0.9293 -0.2360 -0.2841
vn 0.9731 -0.1607 -0.1650
vn -0.9527 -0.2072 -0.2225
vn 0.9967 -0.0030 -0.0814
vn -0.6422 0.4163 0.6437
vn -0.9600 0.1580 0.2311
vn -0.9630 0.1538 0.2212
vn -0.9834 0.1294 0.1276
vn -0.9501 0.2177 0.2235
usemtl None
s off
f 1/1/1 5/2/1 3/3/1
f 6/4/2 16/5/2 7/6/2
f 2/7/3 15/8/3 7/9/3
f 19/10/4 11/11/4 14/12/4
f 8/13/5 5/14/5 13/15/5
f 5/14/6 4/16/6 17/17/6
f 1/18/7 19/10/7 20/19/7
f 5/14/8 17/17/8 13/15/8
f 19/10/9 21/20/9 11/11/9
f 14/12/10 16/21/10 10/22/10
f 3/3/11 5/2/11 21/23/11
f 4/24/12 5/2/12 1/1/12
f 7/6/13 16/5/13 2/25/13
f 17/17/14 20/26/14 15/8/14
f 9/27/15 18/28/15 10/29/15
f 8/13/16 2/7/16 16/21/16
f 10/29/17 6/30/17 9/27/17
f 14/12/18 10/22/18 18/31/18 19/10/18
f 30/32/19 25/33/19 29/34/19
f 56/35/20 30/32/20 31/36/20
f 23/37/21 34/38/21 36/39/21
f 37/40/22 38/41/22 50/42/22
f 24/43/23 38/44/23 49/45/23
f 45/46/24 37/47/24 40/48/24
f 53/49/25 48/50/25 44/51/25
f 39/52/26 47/53/26 36/54/26
f 33/55/27 42/56/27 60/57/27
f 57/58/28 55/59/28 26/60/28
f 41/61/29 25/33/29 55/59/29
f 57/58/30 41/61/30 55/59/30
f 36/54/31 51/62/31 35/63/31
f 23/64/32 43/65/32 53/49/32
f 36/54/33 47/53/33 51/62/33
f 53/49/34 44/51/34 54/66/34
f 48/50/35 40/48/35 50/67/35
f 26/68/36 27/69/36 57/70/36
f 57/70/37 27/69/37 28/71/37
f 31/72/38 30/73/38 32/74/38
f 32/74/39 59/75/39 22/76/39
f 29/77/40 32/74/40 30/73/40
f 32/74/41 29/77/41 59/75/41
f 34/38/42 54/78/42 36/39/42
f 35/79/43 23/37/43 36/39/43
f 37/40/44 45/80/44 38/41/44
f 38/41/45 24/81/45 50/42/45
f 51/62/46 49/45/46 43/82/46
f 49/45/47 40/83/47 52/84/47
f 39/52/48 50/67/48 24/43/48
f 61/85/49 42/56/49 22/86/49
f 25/33/50 61/87/50 29/34/50
f 70/88/51 65/89/51 69/90/51
f 96/91/52 70/88/52 71/92/52
f 63/93/53 76/94/53 74/95/53
f 77/96/54 89/97/54 78/98/54
f 64/99/55 88/100/55 78/101/55
f 92/102/56 84/103/56 87/104/56
f 79/105/57 76/106/57 86/107/57
f 73/108/58 83/109/58 100/110/58
f 97/111/59 95/112/59 66/113/59
f 82/114/60 65/89/60 95/112/60
f 97/111/61 82/114/61 95/112/61
f 76/106/62 75/115/62 90/116/62
f 63/117/63 92/102/63 93/118/63
f 76/106/64 90/116/64 86/107/64
f 92/102/65 94/119/65 84/103/65
f 87/104/66 89/120/66 81/121/66
f 66/122/67 67/123/67 97/124/67
f 97/124/68 67/123/68 68/125/68
f 71/126/69 70/127/69 72/128/69
f 72/128/70 99/129/70 62/130/70
f 69/131/71 72/128/71 70/127/71
f 72/128/72 69/131/72 99/129/72
f 74/95/73 76/94/73 94/132/73
f 75/133/74 76/94/74 63/93/74
f 78/98/75 89/97/75 64/134/75
f 90/116/76 93/135/76 88/100/76
f 80/136/77 91/137/77 81/138/77
f 79/105/78 64/99/78 89/120/78
f 81/138/79 77/139/79 80/136/79
f 101/140/80 83/109/80 62/141/80
f 65/89/81 101/142/81 69/90/81
f 138/143/82 137/144/82 106/145/82
f 109/146/83 105/147/83 108/148/83
f 136/149/84 109/146/84 110/150/84
f 115/151/85 128/152/85 116/153/85
f 104/154/86 127/155/86 116/156/86
f 131/157/87 123/158/87 126/159/87
f 117/160/88 133/161/88 125/162/88
f 139/163/89 121/164/89 141/165/89
f 137/166/90 135/167/90 139/163/90
f 120/168/91 105/147/91 135/167/91
f 137/166/92 120/168/92 135/167/92
f 133/161/93 113/169/93 129/170/93
f 103/171/94 131/157/94 132/172/94
f 134/173/95 133/161/95 123/158/95
f 133/161/96 129/170/96 125/162/96
f 131/157/97 134/173/97 123/158/97
f 126/159/98 128/174/98 119/175/98
f 138/143/99 106/145/99 107/176/99
f 110/177/100 109/178/100 111/179/100
f 111/179/101 140/180/101 102/181/101
f 108/182/102 111/179/102 109/178/102
f 111/179/103 108/182/103 140/180/103
f 134/183/104 114/184/104 133/185/104
f 113/186/105 114/184/105 103/187/105
f 116/153/106 128/152/106 104/188/106
f 129/170/107 132/189/107 127/155/107
f 118/190/108 130/191/108 119/192/108
f 117/160/109 104/154/109 128/174/109
f 119/192/110 115/193/110 118/190/110
f 122/194/111 112/195/111 141/196/111
f 138/197/112 120/168/112 137/166/112
f 142/198/113 121/164/113 102/199/113
f 105/147/114 142/200/114 108/148/114
f 11/11/115 8/13/115 14/12/115
f 5/14/116 11/11/116 21/20/116
f 20/26/117 18/28/117 9/27/117
f 8/13/118 16/21/118 14/12/118
f 9/27/119 15/8/119 20/26/119
f 10/22/120 16/21/120 6/201/120
f 19/10/121 18/31/121 20/19/121
f 5/14/122 8/13/122 11/11/122
f 4/16/123 1/202/123 20/26/123
f 45/203/124 49/45/124 38/44/124
f 39/52/125 44/51/125 48/50/125
f 58/204/126 60/205/126 61/87/126
f 28/206/127 41/61/127 57/58/127
f 58/204/128 61/87/128 25/33/128
f 51/62/129 43/82/129 35/63/129
f 36/54/130 54/66/130 44/51/130
f 43/82/131 49/45/131 52/84/131
f 45/203/132 40/83/132 49/45/132
f 46/207/133 47/53/133 39/52/133
f 39/52/134 48/50/134 50/67/134
f 42/56/135 61/85/135 60/57/135
f 61/87/136 22/208/136 59/209/136
f 40/48/137 37/47/137 50/67/137
f 49/45/138 46/207/138 24/43/138
f 53/49/139 43/65/139 52/210/139
f 36/54/140 44/51/140 39/52/140
f 35/63/141 43/82/141 23/211/141
f 55/59/142 56/35/142 26/60/142
f 33/212/143 60/205/143 58/204/143
f 58/204/144 25/33/144 41/61/144
f 56/35/145 31/36/145 32/213/145
f 61/87/146 59/209/146 29/34/146
f 25/33/147 30/32/147 56/35/147
f 55/59/148 25/33/148 56/35/148
f 84/103/149 79/105/149 87/104/149
f 98/214/150 100/215/150 101/142/150
f 68/216/151 82/114/151 97/111/151
f 98/214/152 101/142/152 65/89/152
f 76/106/153 84/103/153 94/119/153
f 93/135/154 91/137/154 80/136/154
f 79/105/155 89/120/155 87/104/155
f 83/109/156 101/140/156 100/110/156
f 101/142/157 62/217/157 99/218/157
f 80/136/158 88/100/158 93/135/158
f 81/121/159 89/120/159 77/219/159
f 92/102/160 91/220/160 93/118/160
f 76/106/161 79/105/161 84/103/161
f 75/115/162 63/221/162 93/135/162
f 95/112/163 96/91/163 66/113/163
f 73/222/164 100/215/164 98/214/164
f 98/214/165 65/89/165 82/114/165
f 96/91/166 71/92/166 72/223/166
f 101/142/167 99/218/167 69/90/167
f 65/89/168 70/88/168 96/91/168
f 95/112/169 65/89/169 96/91/169
f 123/158/170 117/160/170 126/159/170
f 120/168/171 107/224/171 122/194/171
f 122/194/172 141/196/172 142/200/172
f 107/224/173 112/195/173 122/194/173
f 107/224/174 120/168/174 138/197/174
f 122/194/175 142/200/175 105/147/175
f 132/189/176 130/191/176 118/190/176
f 117/160/177 128/174/177 126/159/177
f 121/164/178 142/198/178 141/165/178
f 142/200/179 102/225/179 140/226/179
f 118/190/180 127/155/180 132/189/180
f 119/175/181 128/174/181 115/227/181
f 131/157/182 130/228/182 132/172/182
f 133/161/183 117/160/183 123/158/183
f 113/169/184 103/229/184 132/189/184
f 113/169/185 133/161/185 114/230/185
f 135/167/186 136/149/186 139/163/186
f 122/194/187 105/147/187 120/168/187
f 112/231/188 106/232/188 139/163/188
f 139/163/189 106/232/189 137/166/189
f 107/224/190 106/233/190 112/195/190
f 136/149/191 110/150/191 111/234/191
f 142/200/192 140/226/192 108/148/192
f 105/147/193 109/146/193 136/149/193
f 135/167/194 105/147/194 136/149/194
f 17/17/195 4/16/195 20/26/195
f 1/18/196 3/235/196 21/20/196 19/10/196
f 12/236/197 8/13/197 13/15/197
f 12/236/198 13/15/198 15/8/198
f 13/15/199 17/17/199 15/8/199
f 12/236/200 2/7/200 8/13/200
f 15/8/201 2/7/201 12/236/201
f 52/210/202 40/48/202 48/50/202 53/49/202
f 41/61/203 28/206/203 58/204/203
f 23/64/204 53/49/204 54/66/204 34/237/204
f 49/45/205 47/53/205 46/207/205
f 49/45/206 51/62/206 47/53/206
f 24/43/207 46/207/207 39/52/207
f 26/60/208 33/55/208 58/238/208 27/239/208
f 33/55/209 26/60/209 42/56/209
f 56/35/210 42/56/210 26/60/210
f 15/8/211 9/27/211 6/30/211 7/9/211
f 58/204/212 28/206/212 27/240/212
f 88/100/213 80/136/213 77/139/213 78/101/213
f 22/86/214 42/56/214 32/213/214
f 32/213/215 42/56/215 56/35/215
f 87/104/216 81/121/216 91/220/216 92/102/216
f 82/114/217 68/216/217 98/214/217
f 90/116/218 75/115/218 93/135/218
f 63/117/219 74/241/219 94/119/219 92/102/219
f 85/242/220 79/105/220 86/107/220
f 85/242/221 86/107/221 88/100/221
f 86/107/222 90/116/222 88/100/222
f 85/242/223 64/99/223 79/105/223
f 88/100/224 64/99/224 85/242/224
f 66/113/225 73/108/225 98/243/225 67/244/225
f 73/108/226 66/113/226 83/109/226
f 96/91/227 83/109/227 66/113/227
f 127/155/228 118/190/228 115/193/228 116/156/228
f 98/214/229 68/216/229 67/245/229
f 62/141/230 83/109/230 72/223/230
f 72/223/231 83/109/231 96/91/231
f 126/159/232 119/175/232 130/228/232 131/157/232
f 129/170/233 113/169/233 132/189/233
f 103/171/234 114/246/234 134/173/234 131/157/234
f 124/247/235 117/160/235 125/162/235
f 124/247/236 125/162/236 127/155/236
f 125/162/237 129/170/237 127/155/237
f 124/247/238 104/154/238 117/160/238
f 127/155/239 104/154/239 124/247/239
f 136/149/240 121/164/240 139/163/240
f 139/163/241 141/165/241 112/231/241
f 102/199/242 121/164/242 111/234/242
f 111/234/243 121/164/243 136/149/243
f 178/248/244 177/249/244 148/250/244
f 176/251/245 150/252/245 151/253/245
f 144/254/1 156/255/1 154/256/1
f 157/257/2 169/258/2 158/259/2
f 145/260/3 168/261/3 158/262/3
f 172/263/4 164/264/4 167/265/4
f 159/266/5 156/267/5 166/268/5
f 153/269/246 162/270/246 181/271/246
f 177/272/247 175/273/247 147/274/247
f 156/267/6 155/275/6 170/276/6
f 144/277/248 172/263/248 173/278/248
f 156/267/249 170/276/249 166/268/249
f 172/263/9 174/279/9 164/264/9
f 167/265/10 169/280/10 161/281/10
f 147/282/250 148/250/250 177/249/250
f 178/248/251 148/250/251 149/283/251
f 151/284/252 150/285/252 152/286/252
f 152/286/253 180/287/253 143/288/253
f 146/289/254 152/286/254 150/285/254
f 152/286/255 146/289/255 180/287/255
f 154/256/11 156/255/11 174/290/11
f 155/291/12 156/255/12 144/254/12
f 158/259/13 169/258/13 145/292/13
f 170/276/14 173/293/14 168/261/14
f 160/294/15 171/295/15 161/296/15
f 159/266/16 145/260/16 169/280/16
f 161/296/17 157/297/17 160/294/17
f 182/298/256 162/270/256 143/299/256
f 167/265/18 161/281/18 171/300/18 172/263/18
f 164/264/115 159/266/115 167/265/115
f 175/273/257 163/301/257 146/302/257
f 179/303/258 181/304/258 182/305/258
f 149/306/259 163/301/259 178/307/259
f 178/307/260 163/301/260 175/273/260
f 179/303/261 182/305/261 163/301/261
f 156/267/116 164/264/116 174/279/116
f 173/293/117 171/295/117 160/294/117
f 159/266/118 169/280/118 167/265/118
f 162/270/262 182/298/262 181/271/262
f 163/301/263 182/305/263 146/302/263
f 182/305/264 143/308/264 180/309/264
f 160/294/119 168/261/119 173/293/119
f 161/281/120 169/280/120 157/310/120
f 172/263/121 171/300/121 173/278/121
f 156/267/122 159/266/122 164/264/122
f 155/275/123 144/311/123 173/293/123
f 175/273/265 176/251/265 147/274/265
f 153/312/266 181/304/266 179/303/266
f 177/272/267 178/307/267 175/273/267
f 176/251/268 151/253/268 152/313/268
f 182/305/269 180/309/269 146/302/269
f 146/302/270 150/252/270 176/251/270
f 175/273/271 146/302/271 176/251/271
f 163/301/272 149/306/272 179/303/272
f 170/276/195 155/275/195 173/293/195
f 144/277/196 154/314/196 174/279/196 172/263/196
f 165/315/197 159/266/197 166/268/197
f 165/315/198 166/268/198 168/261/198
f 166/268/199 170/276/199 168/261/199
f 165/315/200 145/260/200 159/266/200
f 168/261/201 145/260/201 165/315/201
f 147/274/273 153/269/273 179/316/273 148/317/273
f 153/269/274 147/274/274 162/270/274
f 176/251/275 162/270/275 147/274/275
f 179/303/276 149/306/276 148/318/276
f 143/299/277 162/270/277 152/313/277
f 152/313/278 162/270/278 176/251/278
f 168/261/211 160/294/211 157/297/211 158/262/211
f 189/319/279 184/320/279 188/321/279
f 196/322/280 189/319/280 190/323/280
f 192/324/281 194/325/281 200/326/281
f 197/327/282 195/328/282 185/329/282
f 193/330/283 184/320/283 195/328/283
f 197/327/284 193/330/284 195/328/284
f 185/331/285 186/332/285 197/333/285
f 197/333/286 186/332/286 187/334/286
f 190/335/287 189/336/287 191/337/287
f 191/337/288 199/338/288 183/339/288
f 188/340/289 191/337/289 189/336/289
f 191/337/290 188/340/290 199/338/290
f 201/341/291 194/325/291 183/342/291
f 184/320/292 201/343/292 188/321/292
f 198/344/293 200/345/293 201/343/293
f 187/346/294 193/330/294 197/327/294
f 198/344/295 201/343/295 184/320/295
f 194/325/296 201/341/296 200/326/296
f 201/343/297 183/347/297 199/348/297
f 195/328/298 196/322/298 185/329/298
f 192/349/299 200/345/299 198/344/299
f 198/344/300 184/320/300 193/330/300
f 196/322/301 190/323/301 191/350/301
f 201/343/302 199/348/302 188/321/302
f 184/320/303 189/319/303 196/322/303
f 195/328/304 184/320/304 196/322/304
f 193/330/305 187/346/305 198/344/305
f 185/329/306 192/324/306 198/351/306 186/352/306
f 192/324/307 185/329/307 194/325/307
f 196/322/308 194/325/308 185/329/308
f 198/344/309 187/346/309 186/353/309
f 183/342/310 194/325/310 191/350/310
f 191/350/311 194/325/311 196/322/311
f 216/354/312 215/355/312 205/356/312
f 214/357/313 207/358/313 208/359/313
f 210/360/314 211/361/314 219/362/314
f 215/363/315 213/364/315 204/365/315
f 204/366/316 205/356/316 215/355/316
f 216/354/317 205/356/317 206/367/317
f 208/368/318 207/369/318 209/370/318
f 209/370/319 218/371/319 202/372/319
f 203/373/320 209/370/320 207/369/320
f 209/370/321 203/373/321 218/371/321
f 220/374/322 211/361/322 202/375/322
f 213/364/323 212/376/323 203/377/323
f 217/378/324 219/379/324 220/380/324
f 206/381/325 212/376/325 216/382/325
f 216/382/326 212/376/326 213/364/326
f 217/378/327 220/380/327 212/376/327
f 211/361/328 220/374/328 219/362/328
f 212/376/329 220/380/329 203/377/329
f 220/380/330 202/383/330 218/384/330
f 213/364/331 214/357/331 204/365/331
f 210/385/332 219/379/332 217/378/332
f 215/363/333 216/382/333 213/364/333
f 214/357/334 208/359/334 209/386/334
f 220/380/335 218/384/335 203/377/335
f 203/377/336 207/358/336 214/357/336
f 213/364/337 203/377/337 214/357/337
f 212/376/338 206/381/338 217/378/338
f 204/365/339 210/360/339 217/387/339 205/388/339
f 210/360/340 204/365/340 211/361/340
f 214/357/341 211/361/341 204/365/341
f 217/378/342 206/381/342 205/389/342
f 202/375/343 211/361/343 209/386/343
f 209/386/344 211/361/344 214/357/344
f 225/390/345 235/391/345 226/392/345
f 222/393/346 234/394/346 226/395/346
f 238/396/347 230/397/347 233/398/347
f 227/399/348 240/400/348 232/401/348
f 240/400/349 223/402/349 236/403/349
f 221/404/350 238/396/350 239/405/350
f 241/406/351 240/400/351 230/397/351
f 240/400/352 236/403/352 232/401/352
f 238/396/353 241/406/353 230/397/353
f 233/398/354 235/407/354 229/408/354
f 241/409/355 224/410/355 240/411/355
f 223/412/356 224/413/356 221/414/356
f 226/392/357 235/391/357 222/415/357
f 236/403/358 239/416/358 234/394/358
f 228/417/359 237/418/359 229/419/359
f 227/399/360 222/393/360 235/407/360
f 229/419/361 225/420/361 228/417/361
f 230/397/362 227/399/362 233/398/362
f 239/416/363 237/418/363 228/417/363
f 227/399/364 235/407/364 233/398/364
f 228/417/365 234/394/365 239/416/365
f 229/408/366 235/407/366 225/421/366
f 238/396/367 237/422/367 239/405/367
f 240/400/368 227/399/368 230/397/368
f 223/402/369 221/423/369 239/416/369
f 223/402/370 240/400/370 224/424/370
f 234/394/371 228/417/371 225/420/371 226/395/371
f 233/398/372 229/408/372 237/422/372 238/396/372
f 236/403/373 223/402/373 239/416/373
f 221/404/374 224/425/374 241/406/374 238/396/374
f 231/426/375 227/399/375 232/401/375
f 231/426/376 232/401/376 234/394/376
f 232/401/377 236/403/377 234/394/377
f 231/426/378 222/393/378 227/399/378
f 234/394/379 222/393/379 231/426/379
f 248/427/380 243/428/380 247/429/380
f 255/430/381 248/427/381 249/431/381
f 251/432/382 253/433/382 259/434/382
f 256/435/383 254/436/383 244/437/383
f 252/438/384 243/428/384 254/436/384
f 256/435/385 252/438/385 254/436/385
f 244/439/386 245/440/386 256/441/386
f 256/441/387 245/440/387 246/442/387
f 249/443/388 248/444/388 250/445/388
f 250/445/389 258/446/389 242/447/389
f 247/448/390 250/445/390 248/444/390
f 250/445/391 247/448/391 258/446/391
f 260/449/392 253/433/392 242/450/392
f 243/428/393 260/451/393 247/429/393
f 257/452/394 259/453/394 260/451/394
f 246/454/395 252/438/395 256/435/395
f 257/452/396 260/451/396 243/428/396
f 253/433/397 260/449/397 259/434/397
f 260/451/398 242/455/398 258/456/398
f 254/436/399 255/430/399 244/437/399
f 251/457/400 259/453/400 257/452/400
f 257/452/401 243/428/401 252/438/401
f 255/430/402 249/431/402 250/458/402
f 260/451/403 258/456/403 247/429/403
f 243/428/404 248/427/404 255/430/404
f 254/436/405 243/428/405 255/430/405
f 252/438/406 246/454/406 257/452/406
f 244/437/407 251/432/407 257/459/407 245/460/407
f 251/432/408 244/437/408 253/433/408
f 255/430/409 253/433/409 244/437/409
f 257/452/410 246/454/410 245/461/410
f 242/450/411 253/433/411 250/458/411
f 250/458/412 253/433/412 255/430/412
f 275/462/413 274/463/413 264/464/413
f 273/465/414 266/466/414 267/467/414
f 269/468/415 270/469/415 278/470/415
f 274/471/416 272/472/416 263/473/416
f 263/474/417 264/464/417 274/463/417
f 275/462/418 264/464/418 265/475/418
f 267/476/419 266/477/419 268/478/419
f 268/478/420 277/479/420 261/480/420
f 262/481/421 268/478/421 266/477/421
f 268/478/422 262/481/422 277/479/422
f 279/482/423 270/469/423 261/483/423
f 272/472/424 271/484/424 262/485/424
f 276/486/425 278/487/425 279/488/425
f 265/489/426 271/484/426 275/490/426
f 275/490/427 271/484/427 272/472/427
f 276/486/428 279/488/428 271/484/428
f 270/469/429 279/482/429 278/470/429
f 271/484/430 279/488/430 262/485/430
f 279/488/431 261/491/431 277/492/431
f 272/472/432 273/465/432 263/473/432
f 269/493/433 278/487/433 276/486/433
f 274/471/434 275/490/434 272/472/434
f 273/465/435 267/467/435 268/494/435
f 279/488/436 277/492/436 262/485/436
f 262/485/437 266/466/437 273/465/437
f 272/472/438 262/485/438 273/465/438
f 271/484/439 265/489/439 276/486/439
f 263/473/440 269/468/440 276/495/440 264/496/440
f 269/468/441 263/473/441 270/469/441
f 273/465/442 270/469/442 263/473/442
f 276/486/443 265/489/443 264/497/443
f 261/483/444 270/469/444 268/494/444
f 268/494/445 270/469/445 273/465/445
f 284/498/446 294/499/446 285/500/446
f 281/501/447 293/502/447 285/503/447
f 297/504/448 289/505/448 292/506/448
f 286/507/449 299/508/449 291/509/449
f 299/508/450 282/510/450 295/511/450
f 280/512/451 297/504/451 298/513/451
f 300/514/452 299/508/452 289/505/452
f 299/508/453 295/511/453 291/509/453
f 297/504/454 300/514/454 289/505/454
f 292/506/455 294/515/455 288/516/455
f 300/517/456 283/518/456 299/519/456
f 282/520/457 283/521/457 280/522/457
f 285/500/458 294/499/458 281/523/458
f 295/511/459 298/524/459 293/502/459
f 287/525/460 296/526/460 288/527/460
f 286/507/461 281/501/461 294/515/461
f 288/527/462 284/528/462 287/525/462
f 289/505/463 286/507/463 292/506/463
f 298/524/464 296/526/464 287/525/464
f 286/507/465 294/515/465 292/506/465
f 287/525/466 293/502/466 298/524/466
f 288/516/467 294/515/467 284/529/467
f 297/504/468 296/530/468 298/513/468
f 299/508/469 286/507/469 289/505/469
f 282/510/470 280/531/470 298/524/470
f 282/510/471 299/508/471 283/532/471
f 293/502/472 287/525/472 284/528/472 285/503/472
f 292/506/473 288/516/473 296/530/473 297/504/473
f 295/511/474 282/510/474 298/524/474
f 280/512/475 283/533/475 300/514/475 297/504/475
f 290/534/476 286/507/476 291/509/476
f 290/534/477 291/509/477 293/502/477
f 291/509/478 295/511/478 293/502/478
f 290/534/479 281/501/479 286/507/479
f 293/502/480 281/501/480 290/534/480
